<?xml version="1.0" encoding="UTF-8" standalone="no"?>
<!-- Created with Inkscape (http://www.inkscape.org/) -->

<svg
   xmlns:dc="http://purl.org/dc/elements/1.1/"
   xmlns:cc="http://creativecommons.org/ns#"
   xmlns:rdf="http://www.w3.org/1999/02/22-rdf-syntax-ns#"
   xmlns:svg="http://www.w3.org/2000/svg"
   xmlns="http://www.w3.org/2000/svg"
   xmlns:sodipodi="http://sodipodi.sourceforge.net/DTD/sodipodi-0.dtd"
   xmlns:inkscape="http://www.inkscape.org/namespaces/inkscape"
   width="180.13907mm"
   height="180.25133mm"
   viewBox="0 0 180.13907 180.25133"
   version="1.1"
   id="svg8"
   inkscape:version="0.92.4 (unknown)"
   sodipodi:docname="ice-crushed.svg">
  <defs
     id="defs2" />
  <sodipodi:namedview
     id="base"
     pagecolor="#ffffff"
     bordercolor="#666666"
     borderopacity="1.0"
     inkscape:pageopacity="0.0"
     inkscape:pageshadow="2"
     inkscape:zoom="0.9899495"
     inkscape:cx="-279.80367"
     inkscape:cy="153.9738"
     inkscape:document-units="mm"
     inkscape:current-layer="layer1"
     showgrid="false"
     inkscape:window-width="3840"
     inkscape:window-height="2025"
     inkscape:window-x="3840"
     inkscape:window-y="0"
     inkscape:window-maximized="1"
     fit-margin-top="5"
     fit-margin-right="5"
     fit-margin-bottom="5"
     fit-margin-left="5" />
  <metadata
     id="metadata5">
    <rdf:RDF>
      <cc:Work
         rdf:about="">
        <dc:format>image/svg+xml</dc:format>
        <dc:type
           rdf:resource="http://purl.org/dc/dcmitype/StillImage" />
        <dc:title></dc:title>
      </cc:Work>
    </rdf:RDF>
  </metadata>
  <g
     inkscape:label="Layer 1"
     inkscape:groupmode="layer"
     id="layer1"
     transform="translate(-10.623931,-84.598638)">
    <path
       sodipodi:type="star"
       id="path3791"
       sodipodi:sides="7"
       sodipodi:cx="82.020836"
       sodipodi:cy="203.63988"
       sodipodi:r1="31.193777"
       sodipodi:r2="27.316832"
       sodipodi:arg1="-2.2450506"
       sodipodi:arg2="-1.7962516"
       inkscape:flatsided="true"
       inkscape:rounded="0"
       inkscape:randomized="0"
       d="m 62.546095,179.27215 26.383895,-6.05127 21.18116,16.85486 0.0286,27.06893 -21.145519,16.89955 -26.396616,-5.99554 -11.770519,-24.37587 z"
       inkscape:transform-center-x="-0.33925969"
       inkscape:transform-center-y="1.9590611"
       style="fill:none;fill-opacity:1;stroke:#000000;stroke-width:5.44172049;stroke-miterlimit:4;stroke-dasharray:none;stroke-opacity:1"
       transform="matrix(0.77343178,0,0,0.6985951,21.733687,75.291512)" />
    <path
       sodipodi:type="star"
       id="path3793"
       sodipodi:sides="7"
       sodipodi:cx="78.052086"
       sodipodi:cy="100.83035"
       sodipodi:r1="38.893913"
       sodipodi:r2="35.04221"
       sodipodi:arg1="-2.1062159"
       sodipodi:arg2="-1.6574169"
       inkscape:flatsided="true"
       inkscape:rounded="0"
       inkscape:randomized="0"
       d="m 58.208336,67.379462 33.624333,-2.919867 23.247271,24.468055 -4.63546,33.43103 -29.027591,17.21976 -31.56136,-11.95834 -10.328778,-32.131568 z"
       inkscape:transform-center-x="0.42209857"
       inkscape:transform-center-y="0.54387548"
       style="fill:none;stroke:#000000;stroke-width:7.87587309;stroke-miterlimit:4;stroke-dasharray:none;stroke-opacity:1"
       transform="matrix(0.56374496,0,0,0.45755142,33.740519,87.767767)" />
    <path
       sodipodi:type="star"
       id="path3795"
       sodipodi:sides="7"
       sodipodi:cx="145.8988"
       sodipodi:cy="86.845238"
       sodipodi:r1="24.590248"
       sodipodi:r2="8.6065865"
       sodipodi:arg1="1.4397684"
       sodipodi:arg2="1.8885674"
       inkscape:flatsided="true"
       inkscape:rounded="-0.03"
       inkscape:randomized="0"
       d="m 149.1116,111.2247 c 0.63467,-0.0836 -20.73138,-7.11131 -20.27028,-6.66725 0.4611,0.44406 -7.36596,-20.642277 -7.42565,-20.004907 -0.0597,0.63737 11.54618,-18.629192 11.01065,-18.278462 -0.53553,0.350729 21.76381,-2.587944 21.15571,-2.787961 -0.60811,-0.200018 15.59285,15.402078 15.37008,14.801931 -0.22277,-0.600148 -2.31985,21.794019 -1.98953,21.245667 0.33032,-0.548354 -18.48565,11.774622 -17.85098,11.690982 z"
       inkscape:transform-center-x="0.72705642"
       inkscape:transform-center-y="0.56680593"
       style="display:inline;fill:none;stroke:#000000;stroke-width:3.76307344;stroke-miterlimit:4;stroke-dasharray:none;stroke-opacity:1"
       transform="matrix(1.0169836,0,0,1.1110169,11.022437,79.03065)" />
    <path
       sodipodi:type="star"
       id="path3793-3"
       sodipodi:sides="7"
       sodipodi:cx="78.052086"
       sodipodi:cy="100.83035"
       sodipodi:r1="38.893913"
       sodipodi:r2="35.04221"
       sodipodi:arg1="-2.1062159"
       sodipodi:arg2="-1.6574169"
       inkscape:flatsided="true"
       inkscape:rounded="0"
       inkscape:randomized="0"
       d="m 58.208336,67.379462 33.624333,-2.919867 23.247271,24.468055 -4.63546,33.43103 -29.027591,17.21976 -31.56136,-11.95834 -10.328778,-32.131568 z"
       inkscape:transform-center-x="0.41244428"
       inkscape:transform-center-y="0.54671937"
       style="fill:none;stroke:#000000;stroke-width:7.94676685;stroke-miterlimit:4;stroke-dasharray:none;stroke-opacity:1"
       transform="matrix(0.5508508,0,0,0.45994413,89.931977,80.847644)" />
    <path
       sodipodi:type="star"
       id="path3795-6"
       sodipodi:sides="7"
       sodipodi:cx="145.8988"
       sodipodi:cy="86.845238"
       sodipodi:r1="24.590248"
       sodipodi:r2="8.6065865"
       sodipodi:arg1="1.4397684"
       sodipodi:arg2="1.8885674"
       inkscape:flatsided="true"
       inkscape:rounded="0"
       inkscape:randomized="0"
       d="m 149.1116,111.2247 -20.27028,-6.66725 -7.42565,-20.004907 11.01065,-18.278462 21.15571,-2.787961 15.37008,14.801931 -1.98953,21.245667 z"
       inkscape:transform-center-x="0.38246019"
       inkscape:transform-center-y="0.31942599"
       style="display:inline;fill:none;stroke:#000000;stroke-width:6.91136169;stroke-miterlimit:4;stroke-dasharray:none;stroke-opacity:1"
       transform="matrix(0.53496884,0,0,0.62612961,8.2561016,120.60572)" />
    <path
       sodipodi:type="star"
       style="fill:none;fill-opacity:1;stroke:#000000;stroke-width:3.45510197;stroke-linejoin:miter;stroke-miterlimit:4;stroke-dasharray:none;stroke-opacity:1"
       id="path910"
       sodipodi:sides="7"
       sodipodi:cx="115.19316"
       sodipodi:cy="158.15347"
       sodipodi:r1="9.7885199"
       sodipodi:r2="6.7692642"
       sodipodi:arg1="2.3036017"
       sodipodi:arg2="2.7524006"
       inkscape:flatsided="true"
       inkscape:rounded="-0.03"
       inkscape:randomized="0"
       d="m 108.64506,165.42929 c 0.18941,0.17046 -3.20785,-8.11331 -3.22303,-7.85894 -0.0152,0.25438 4.34317,-7.56656 4.13483,-7.41983 -0.20834,0.14673 8.6237,-1.32204 8.37908,-1.39344 -0.24462,-0.0714 6.41041,5.918 6.31372,5.68223 -0.0967,-0.23577 -0.63006,8.70167 -0.50602,8.47907 0.12405,-0.22259 -7.19607,4.93281 -6.9447,4.891 0.25138,-0.0418 -8.34329,-2.55056 -8.15388,-2.38009 z"
       inkscape:transform-center-x="0.36951848"
       inkscape:transform-center-y="-0.0027722553"
       transform="matrix(1,0,0,1.3402884,-1.6726927,-47.339217)" />
    <path
       sodipodi:type="star"
       style="fill:none;fill-opacity:1;stroke:#000000;stroke-width:4;stroke-linejoin:miter;stroke-miterlimit:4;stroke-dasharray:none;stroke-opacity:1"
       id="path912"
       sodipodi:sides="7"
       sodipodi:cx="43.76313"
       sodipodi:cy="174.43306"
       sodipodi:r1="18.284536"
       sodipodi:r2="16.473799"
       sodipodi:arg1="0.62449755"
       sodipodi:arg2="1.0732965"
       inkscape:flatsided="true"
       inkscape:rounded="-0.03"
       inkscape:randomized="0"
       d="m 58.596588,185.12384 c 0.278314,-0.38616 -14.418774,7.59525 -13.943337,7.57208 0.475438,-0.0232 -14.928164,-6.53749 -14.613616,-6.18023 0.314547,0.35726 -4.196341,-15.74737 -4.279545,-15.27869 -0.0832,0.46867 9.695412,-13.09916 9.277112,-12.872 -0.4183,0.22717 16.286322,-0.58701 15.847914,-0.77242 -0.438409,-0.1854 10.613299,12.36717 10.484913,11.90881 -0.128386,-0.45836 -3.051754,16.00861 -2.773441,15.62245 z"
       inkscape:transform-center-x="0.1977801"
       inkscape:transform-center-y="0.71019723" />
    <path
       sodipodi:type="star"
       style="fill:none;fill-opacity:1;stroke:#000000;stroke-width:4;stroke-linejoin:miter;stroke-miterlimit:4;stroke-dasharray:none;stroke-opacity:1"
       id="path914"
       sodipodi:sides="7"
       sodipodi:cx="121.80581"
       sodipodi:cy="195.41373"
       sodipodi:r1="12.58865"
       sodipodi:r2="11.341982"
       sodipodi:arg1="0.92092588"
       sodipodi:arg2="1.3697248"
       inkscape:flatsided="true"
       inkscape:rounded="-0.03"
       inkscape:randomized="0"
       d="m 129.42299,205.43633 c 0.26092,-0.19829 -11.02165,2.10138 -10.70394,2.18174 0.31772,0.0804 -8.51481,-7.30688 -8.37954,-7.00838 0.13526,0.2985 0.40385,-11.21292 0.25481,-10.92105 -0.14904,0.29187 9.01841,-6.67539 8.69729,-6.60994 -0.32112,0.0654 10.84192,2.88884 10.59054,2.67858 -0.25139,-0.21025 4.50124,10.27772 4.50888,9.95009 0.008,-0.32763 -5.22896,9.92726 -4.96804,9.72896 z"
       inkscape:transform-center-x="-0.55869498"
       inkscape:transform-center-y="-0.06524765" />
    <path
       sodipodi:type="star"
       id="path3795-7"
       sodipodi:sides="7"
       sodipodi:cx="145.8988"
       sodipodi:cy="86.845238"
       sodipodi:r1="24.590248"
       sodipodi:r2="8.6065865"
       sodipodi:arg1="1.4397684"
       sodipodi:arg2="1.8885674"
       inkscape:flatsided="true"
       inkscape:rounded="-0.03"
       inkscape:randomized="0"
       d="m 149.1116,111.2247 c 0.63467,-0.0836 -20.73138,-7.11131 -20.27028,-6.66725 0.4611,0.44406 -7.36596,-20.642277 -7.42565,-20.004907 -0.0597,0.63737 11.54618,-18.629192 11.01065,-18.278462 -0.53553,0.350729 21.76381,-2.587944 21.15571,-2.787961 -0.60811,-0.200018 15.59285,15.402078 15.37008,14.801931 -0.22277,-0.600148 -2.31985,21.794019 -1.98953,21.245667 0.33032,-0.548354 -18.48565,11.774622 -17.85098,11.690982 z"
       inkscape:transform-center-x="0.56592911"
       inkscape:transform-center-y="0.34401419"
       style="display:inline;fill:none;stroke:#000000;stroke-width:5.47488642;stroke-miterlimit:4;stroke-dasharray:none;stroke-opacity:1"
       transform="matrix(0.79159895,0,0,0.67431771,-77.311392,157.22164)" />
    <path
       sodipodi:type="star"
       style="fill:none;fill-opacity:1;stroke:#000000;stroke-width:3.36316729;stroke-linejoin:miter;stroke-miterlimit:4;stroke-dasharray:none;stroke-opacity:1"
       id="path914-5"
       sodipodi:sides="7"
       sodipodi:cx="138.42134"
       sodipodi:cy="244.94861"
       sodipodi:r1="12.588649"
       sodipodi:r2="11.341982"
       sodipodi:arg1="0.92092588"
       sodipodi:arg2="1.3697248"
       inkscape:flatsided="true"
       inkscape:rounded="-0.03"
       inkscape:randomized="0"
       d="m 146.03852,254.97121 c 0.26092,-0.19829 -11.02165,2.10139 -10.70393,2.18174 0.31771,0.0804 -8.51482,-7.30688 -8.37955,-7.00838 0.13527,0.2985 0.40385,-11.21292 0.25481,-10.92105 -0.14904,0.29187 9.01841,-6.67539 8.69729,-6.60994 -0.32111,0.0654 10.84192,2.88884 10.59054,2.67859 -0.25139,-0.21025 4.50124,10.27771 4.50888,9.95008 0.008,-0.32763 -5.22896,9.92726 -4.96804,9.72896 z"
       inkscape:transform-center-x="-0.70025964"
       inkscape:transform-center-y="-0.073630865"
       transform="matrix(1.2533961,0,0,1.1285861,-31.544338,-52.492995)" />
    <path
       style="fill:none;stroke:#000000;stroke-width:2.46499991;stroke-linecap:butt;stroke-linejoin:miter;stroke-miterlimit:4;stroke-dasharray:none;stroke-opacity:1"
       d="m 69.955539,125.65636 14.165284,-2.13815 8.018087,9.35443"
       id="path937"
       inkscape:connector-curvature="0"
       sodipodi:nodetypes="ccc" />
    <path
       style="fill:none;stroke:#000000;stroke-width:2.48176289;stroke-linecap:butt;stroke-linejoin:miter;stroke-miterlimit:4;stroke-dasharray:none;stroke-opacity:1"
       d="m 81.581693,167.23716 7.659284,-0.68751 5.663612,6.62229"
       id="path937-3"
       inkscape:connector-curvature="0"
       sodipodi:nodetypes="ccc" />
    <path
       style="fill:none;stroke:#000000;stroke-width:2.46499991;stroke-linecap:butt;stroke-linejoin:miter;stroke-miterlimit:4;stroke-dasharray:none;stroke-opacity:1"
       d="m 36.350951,164.61081 h 12.561666 l 6.949009,9.08717"
       id="path937-5"
       inkscape:connector-curvature="0"
       sodipodi:nodetypes="ccc" />
    <path
       style="fill:none;stroke:#000000;stroke-width:2.46499991;stroke-linecap:butt;stroke-linejoin:miter;stroke-miterlimit:4;stroke-dasharray:none;stroke-opacity:1"
       d="m 29.401943,206.8394 12.828936,-1.33635 10.156243,8.01808"
       id="path937-6"
       inkscape:connector-curvature="0"
       sodipodi:nodetypes="ccc" />
    <path
       style="fill:none;stroke:#000000;stroke-width:2.46499991;stroke-linecap:butt;stroke-linejoin:miter;stroke-miterlimit:4;stroke-dasharray:none;stroke-opacity:1"
       d="m 75.639571,207.10667 14.432554,-3.47451 9.621704,7.75082"
       id="path937-2"
       inkscape:connector-curvature="0"
       sodipodi:nodetypes="ccc" />
    <path
       style="fill:none;stroke:#000000;stroke-width:2.46499991;stroke-linecap:butt;stroke-linejoin:miter;stroke-miterlimit:4;stroke-dasharray:none;stroke-opacity:1"
       d="m 119.47177,187.86326 6.41447,0.80181 2.93996,6.94901"
       id="path937-9"
       inkscape:connector-curvature="0"
       sodipodi:nodetypes="ccc" />
    <path
       style="fill:none;stroke:#000000;stroke-width:2.46499991;stroke-linecap:butt;stroke-linejoin:miter;stroke-miterlimit:4;stroke-dasharray:none;stroke-opacity:1"
       d="m 139.24971,215.39202 9.62171,1.06908 4.00904,8.28535"
       id="path937-1"
       inkscape:connector-curvature="0"
       sodipodi:nodetypes="ccc" />
    <path
       style="fill:none;stroke:#000000;stroke-width:2.46499991;stroke-linecap:butt;stroke-linejoin:miter;stroke-miterlimit:4;stroke-dasharray:none;stroke-opacity:1"
       d="m 113.0573,156.85999 4.54358,3.47451 1e-5,8.81989"
       id="path937-27"
       inkscape:connector-curvature="0"
       sodipodi:nodetypes="ccc" />
    <path
       style="fill:none;stroke:#000000;stroke-width:2.46499991;stroke-linecap:butt;stroke-linejoin:miter;stroke-miterlimit:4;stroke-dasharray:none;stroke-opacity:1"
       d="m 126.95532,117.03684 12.82893,-1.33635 5.3454,8.81989"
       id="path937-0"
       inkscape:connector-curvature="0"
       sodipodi:nodetypes="ccc" />
    <path
       style="fill:none;stroke:#000000;stroke-width:2.46499991;stroke-linecap:butt;stroke-linejoin:miter;stroke-miterlimit:4;stroke-dasharray:none;stroke-opacity:1"
       d="m 149.13331,160.60714 15.23437,-1.87089 9.88897,10.42352"
       id="path937-93"
       inkscape:connector-curvature="0"
       sodipodi:nodetypes="ccc" />
  </g>
</svg>
