<?xml version="1.0" encoding="UTF-8" standalone="no"?>
<!-- Generator: Adobe Illustrator 18.0.0, SVG Export Plug-In . SVG Version: 6.00 Build 0)  -->

<svg
   xmlns:dc="http://purl.org/dc/elements/1.1/"
   xmlns:cc="http://creativecommons.org/ns#"
   xmlns:rdf="http://www.w3.org/1999/02/22-rdf-syntax-ns#"
   xmlns:svg="http://www.w3.org/2000/svg"
   xmlns="http://www.w3.org/2000/svg"
   xmlns:sodipodi="http://sodipodi.sourceforge.net/DTD/sodipodi-0.dtd"
   xmlns:inkscape="http://www.inkscape.org/namespaces/inkscape"
   version="1.1"
   id="Capa_1"
   x="0px"
   y="0px"
   viewBox="0 0 475 475"
   xml:space="preserve"
   sodipodi:docname="ice-cubes.svg"
   width="475"
   height="475"
   inkscape:version="0.92.4 (unknown)"><metadata
   id="metadata47"><rdf:RDF><cc:Work
       rdf:about=""><dc:format>image/svg+xml</dc:format><dc:type
         rdf:resource="http://purl.org/dc/dcmitype/StillImage" /><dc:title></dc:title></cc:Work></rdf:RDF></metadata><defs
   id="defs45" /><sodipodi:namedview
   pagecolor="#ffffff"
   bordercolor="#666666"
   borderopacity="1"
   objecttolerance="10"
   gridtolerance="10"
   guidetolerance="10"
   inkscape:pageopacity="0"
   inkscape:pageshadow="2"
   inkscape:window-width="3840"
   inkscape:window-height="2025"
   id="namedview43"
   showgrid="false"
   fit-margin-top="15"
   fit-margin-left="15"
   fit-margin-right="15"
   fit-margin-bottom="15"
   inkscape:zoom="2.1330634"
   inkscape:cx="296.89162"
   inkscape:cy="245.17493"
   inkscape:window-x="3840"
   inkscape:window-y="0"
   inkscape:window-maximized="1"
   inkscape:current-layer="Capa_1" />
<g
   id="g10"
   transform="translate(16.2218,16.220888)">
	<path
   d="m 84.355,85.534 -33.133,19.084 c -6.479,3.732 -8.715,12.041 -4.982,18.523 l 19.084,33.131 c 1.852,3.213 5.215,5.012 8.676,5.012 1.691,0 3.408,-0.432 4.98,-1.338 4.787,-2.756 6.432,-8.871 3.674,-13.656 L 66.783,118.737 94.338,102.864 c 4.785,-2.758 6.43,-8.871 3.674,-13.656 -2.756,-4.786 -8.869,-6.434 -13.657,-3.674 z"
   id="path2"
   inkscape:connector-curvature="0" />
	<path
   d="M 439.563,186.835 366.323,53.954 C 359.897,42.3 345.188,38.042 333.534,44.468 L 224.889,104.349 176.535,20.408 C 169.892,8.877 155.103,4.898 143.572,11.541 L 12.1,87.274 c -5.586,3.219 -9.586,8.42 -11.26,14.645 -1.676,6.227 -0.826,12.732 2.393,18.318 L 78.965,251.71 c 4.463,7.748 12.598,12.084 20.955,12.084 4.084,0 8.223,-1.035 12.008,-3.217 l 10.51,-6.053 -38.588,57.092 c -3.609,5.34 -4.924,11.767 -3.699,18.098 1.225,6.332 4.84,11.805 10.182,15.414 l 125.707,84.963 c 4.006,2.709 8.676,4.143 13.502,4.143 8.035,0 15.516,-3.971 20.012,-10.623 l 84.963,-125.707 c 5.426,-8.025 5.355,-18.174 0.666,-25.977 l 94.893,-52.303 c 11.653,-6.424 15.91,-21.133 9.487,-32.789 z m -337.616,56.412 c -1.98,1.139 -4.512,0.457 -5.652,-1.52 L 20.563,110.254 c -1.139,-1.977 -0.457,-4.512 1.519,-5.65 L 153.555,28.87 c 1.979,-1.137 4.512,-0.457 5.65,1.519 l 48.164,83.613 -6.715,3.703 c -5.646,3.111 -9.744,8.234 -11.535,14.43 -1.793,6.193 -1.066,12.713 2.047,18.359 l 17.301,31.393 -1.35,0.777 -4.791,-3.238 c -4.008,-2.707 -8.676,-4.139 -13.502,-4.139 -8.035,0 -15.516,3.969 -20.012,10.619 l -20.83,30.82 z m 215.998,43.457 -84.961,125.705 c -0.773,1.143 -2.059,1.824 -3.443,1.824 -0.83,0 -1.604,-0.24 -2.303,-0.711 L 101.531,328.557 c -1.234,-0.834 -1.623,-2.012 -1.744,-2.641 -0.121,-0.629 -0.201,-1.867 0.633,-3.102 l 84.963,-125.709 c 0.771,-1.139 2.057,-1.818 3.441,-1.818 0.83,0 1.605,0.238 2.303,0.709 l 125.707,84.961 c 1.891,1.28 2.389,3.856 1.111,5.747 z M 420.42,202.108 318.775,258.131 246.345,209.178 208.681,140.84 c -0.721,-1.305 -0.529,-2.531 -0.352,-3.146 0.178,-0.615 0.672,-1.754 1.977,-2.473 L 343.187,61.983 c 1.996,-1.102 4.518,-0.373 5.619,1.625 l 73.24,132.881 c 1.101,1.998 0.372,4.517 -1.626,5.619 z"
   id="path4"
   inkscape:connector-curvature="0" />
	<path
   d="m 348.242,92.741 c -3.609,-6.545 -11.875,-8.934 -18.426,-5.328 l -33.484,18.457 c -4.838,2.666 -6.598,8.748 -3.932,13.584 2.666,4.838 8.748,6.6 13.586,3.932 l 27.848,-15.35 15.35,27.85 c 1.822,3.305 5.24,5.174 8.766,5.174 1.633,0 3.287,-0.4 4.818,-1.244 4.838,-2.666 6.598,-8.748 3.932,-13.584 z"
   id="path6"
   inkscape:connector-curvature="0" />
	<path
   d="M 173.139,333.723 146.791,315.918 164.6,289.572 c 3.092,-4.576 1.891,-10.793 -2.686,-13.885 -4.576,-3.092 -10.791,-1.893 -13.885,2.686 l -21.412,31.678 c -4.188,6.195 -2.553,14.645 3.643,18.834 l 31.68,21.408 c 1.717,1.16 3.664,1.717 5.59,1.717 3.209,0 6.361,-1.543 8.295,-4.402 3.091,-4.576 1.888,-10.791 -2.686,-13.885 z"
   id="path8"
   inkscape:connector-curvature="0" />
</g>
<g
   id="g12"
   transform="translate(14.999842,25.765985)">
</g>
<g
   id="g14"
   transform="translate(14.999842,25.765985)">
</g>
<g
   id="g16"
   transform="translate(14.999842,25.765985)">
</g>
<g
   id="g18"
   transform="translate(14.999842,25.765985)">
</g>
<g
   id="g20"
   transform="translate(14.999842,25.765985)">
</g>
<g
   id="g22"
   transform="translate(14.999842,25.765985)">
</g>
<g
   id="g24"
   transform="translate(14.999842,25.765985)">
</g>
<g
   id="g26"
   transform="translate(14.999842,25.765985)">
</g>
<g
   id="g28"
   transform="translate(14.999842,25.765985)">
</g>
<g
   id="g30"
   transform="translate(14.999842,25.765985)">
</g>
<g
   id="g32"
   transform="translate(14.999842,25.765985)">
</g>
<g
   id="g34"
   transform="translate(14.999842,25.765985)">
</g>
<g
   id="g36"
   transform="translate(14.999842,25.765985)">
</g>
<g
   id="g38"
   transform="translate(14.999842,25.765985)">
</g>
<g
   id="g40"
   transform="translate(14.999842,25.765985)">
</g>
</svg>