<?xml version="1.0" encoding="iso-8859-1"?>
<!-- Generator: Adobe Illustrator 19.0.0, SVG Export Plug-In . SVG Version: 6.00 Build 0)  -->
<svg version="1.1" id="Layer_1" xmlns="http://www.w3.org/2000/svg" xmlns:xlink="http://www.w3.org/1999/xlink" x="0px" y="0px"
	 viewBox="0 0 512 512" style="enable-background:new 0 0 512 512;" xml:space="preserve">
<g>
	<g>
		<path d="M369.473,161.313c1.278-6.923,1.926-14.009,1.926-21.06c0-19.929-12.157-95.216-28.79-134.067
			C341.002,2.434,337.313,0,333.231,0H178.768c-4.081,0-7.77,2.434-9.376,6.185c-16.633,38.851-28.79,114.136-28.79,134.066
			c0,7.054,0.648,14.139,1.925,21.06c8.43,45.68,43.144,80.887,86.807,91.226v180.348c0,18.756-15.259,34.015-34.014,34.015h-13.874
			c-12.433,0-22.548,10.116-22.548,22.548c0,12.433,10.117,22.55,22.549,22.55h150.937c12.433,0,22.548-10.116,22.548-22.548
			c0-12.433-10.116-22.548-22.548-22.548h-13.874c-18.756,0-34.015-15.259-34.015-34.015V252.092
			C327.298,241.212,361.161,206.353,369.473,161.313z M161.001,140.252c0-17.174,10.502-82.398,24.66-119.854h140.679
			c14.158,37.456,24.661,102.681,24.661,119.854c0,3.004-0.143,6.014-0.425,9.011H161.426
			C161.143,146.267,161.001,143.256,161.001,140.252z M318.51,487.301h13.874c1.185,0,2.15,0.964,2.15,2.15
			c0,1.185-0.965,2.15-2.15,2.15H181.446c-1.186,0-2.15-0.965-2.15-2.15c0-1.186,0.965-2.15,2.15-2.15h13.874
			c30.003,0,54.413-24.41,54.413-54.414V255.475c2.078,0.112,4.165,0.175,6.267,0.175c2.719,0,5.419-0.098,8.096-0.285v177.521
			C264.096,462.892,288.506,487.301,318.51,487.301z M255.999,235.253c-41.622,0-77.849-26.941-90.366-65.591h180.733
			C333.85,208.313,297.621,235.253,255.999,235.253z"/>
	</g>
</g>
<g>
	<g>
		<path d="M321.677,50.161c-1.266-4.313-2.569-8.302-3.873-11.855c-1.94-5.288-7.8-8.001-13.088-6.061
			c-5.288,1.939-8.002,7.799-6.061,13.088c1.148,3.13,2.309,6.687,3.448,10.57c1.305,4.447,5.372,7.331,9.782,7.331
			c0.952,0,1.918-0.135,2.876-0.415C320.167,61.232,323.263,55.565,321.677,50.161z"/>
	</g>
</g>
<g>
	<g>
		<path d="M329.249,81.921c-1.075-5.53-6.428-9.137-11.958-8.067c-5.53,1.075-9.142,6.429-8.067,11.959
			c3.161,16.261,4.814,29.899,4.814,34.967c0,5.632,4.567,10.199,10.199,10.199c5.632,0,10.199-4.567,10.199-10.199
			C334.437,113.505,332.352,97.89,329.249,81.921z"/>
	</g>
</g>
<g>
</g>
<g>
</g>
<g>
</g>
<g>
</g>
<g>
</g>
<g>
</g>
<g>
</g>
<g>
</g>
<g>
</g>
<g>
</g>
<g>
</g>
<g>
</g>
<g>
</g>
<g>
</g>
<g>
</g>
</svg>
