<?xml version="1.0" encoding="UTF-8" standalone="no"?>
<svg
   version="1.1"
   id="Layer_1"
   x="0px"
   y="0px"
   viewBox="0 0 1451.8396 1600.0142"
   enable-background="new 0 0 2034.051 1672.386"
   xml:space="preserve"
   sodipodi:docname="cow.svg"
   inkscape:version="1.2 (1:1.2.1+202207142221+cd75a1ee6d)"
   width="1451.8396"
   height="1600.0142"
   xmlns:inkscape="http://www.inkscape.org/namespaces/inkscape"
   xmlns:sodipodi="http://sodipodi.sourceforge.net/DTD/sodipodi-0.dtd"
   xmlns="http://www.w3.org/2000/svg"
   xmlns:svg="http://www.w3.org/2000/svg"><defs
   id="defs5157" /><sodipodi:namedview
   id="namedview5155"
   pagecolor="#ffffff"
   bordercolor="#000000"
   borderopacity="0.25"
   inkscape:showpageshadow="2"
   inkscape:pageopacity="0.0"
   inkscape:pagecheckerboard="0"
   inkscape:deskcolor="#d1d1d1"
   showgrid="false"
   inkscape:zoom="0.59974193"
   inkscape:cx="730.31412"
   inkscape:cy="801.17793"
   inkscape:window-width="3840"
   inkscape:window-height="2095"
   inkscape:window-x="1920"
   inkscape:window-y="0"
   inkscape:window-maximized="1"
   inkscape:current-layer="Layer_1" />
<path
   d="m 142.04874,0 c 8.519,192.294 162.454,340.515 346.629,401.6 69.054,-46.542 162.504,-49.107 235.693,-10.523 73.399,-38.113 169.414,-37.694 236.793,13.088 183.07696,-56.187 345.85096,-203.706 355.99996,-404.113 108.842,125.368 113.889,317.954 -52.981,468.193 154.23,-25.499 64.1579,146.13297 187.6569,241.00497 -124.8655,46.66556 -56.8129,155.35073 -234.5649,85.31203 38.008,-86.697 13.298,-187.476 -37.537,-263.44 -5.34,2.408 -10.68,4.869 -15.968,7.382 6.131,25.035 77.89,142.364 5.131,286.214 -17.591,37.956 -46.646,68.635 -68.792,103.816 -170.22096,261.532 -149.38296,219.119 -150.14796,262.865 0.838,55.232 -0.838,110.569 0.838,165.802 13.141,7.643 26.7,14.921 38.323,24.92 5.287,12.303 2.199,26.491 2.932,39.579 -2.062,42.455 15.98196,121.984 -62.981,168.629 -20.93,12.579 -8.579,9.149 -356.838,9.528 -55.651,0.419 -98.424,-52.667 -104.392,-104.654 -2.094,-36.542 -0.471,-73.19 -0.785,-109.784 13.664,-9.319 27.171,-18.847 40.888,-28.061 0,-62.353 0.052,-124.757 0.052,-187.11 0.827,-16.729 3.799,-7.211 -148.892,-241.714 -21.412,-34.082 -49.526,-63.818 -67.064,-100.361 -36.49,-70.205 -44.081,-154.86 -19.475,-230.196 5.916,-20.679 18.062,-39.003 22.826,-60.049 -4.816,-1.623 -9.633,-3.193 -14.449,-4.764 -67.676,112.645 -62.298,187.034 -36.752,264.959 C 89.59374,808.987 127.998,780.2049 0,692.3519 132.199,590.0389 30.66374,448.309 195.13474,468.402 24.27074,313.503 36.49674,121.62 142.04874,0 Z"
   id="path5152"
   sodipodi:nodetypes="ccccccccccccccccccccccccccccccc" />
</svg>
