<?xml version="1.0" encoding="UTF-8" standalone="no"?>
<!-- Created with Inkscape (http://www.inkscape.org/) -->

<svg
   id="svg2"
   sodipodi:docname="grapefruit.svg"
   viewBox="0 0 176.65541 181.69217"
   version="1.1"
   inkscape:version="1.2 (1:1.2.1+202207142221+cd75a1ee6d)"
   width="176.65541"
   height="181.69217"
   xmlns:inkscape="http://www.inkscape.org/namespaces/inkscape"
   xmlns:sodipodi="http://sodipodi.sourceforge.net/DTD/sodipodi-0.dtd"
   xmlns="http://www.w3.org/2000/svg"
   xmlns:svg="http://www.w3.org/2000/svg"
   xmlns:rdf="http://www.w3.org/1999/02/22-rdf-syntax-ns#"
   xmlns:cc="http://creativecommons.org/ns#"
   xmlns:dc="http://purl.org/dc/elements/1.1/">
  <defs
     id="defs6">
    <filter
       id="filter4716"
       height="1.4479625"
       width="1.41714"
       color-interpolation-filters="sRGB"
       y="-0.22398125"
       x="-0.20856999"
       inkscape:collect="always">
      <feGaussianBlur
         id="feGaussianBlur4718"
         stdDeviation="7.6964062"
         inkscape:collect="always" />
    </filter>
    <filter
       id="filter5584"
       height="1.3780999"
       width="1.8748251"
       color-interpolation-filters="sRGB"
       y="-0.18904997"
       x="-0.43741257"
       inkscape:collect="always">
      <feGaussianBlur
         id="feGaussianBlur5586"
         stdDeviation="5.7648426"
         inkscape:collect="always" />
    </filter>
    <filter
       id="filter5688"
       inkscape:collect="always"
       color-interpolation-filters="sRGB"
       x="-0.051666879"
       y="-0.035495922"
       width="1.1033338"
       height="1.0709918">
      <feGaussianBlur
         id="feGaussianBlur5690"
         stdDeviation="1.6993968"
         inkscape:collect="always" />
    </filter>
    <radialGradient
       id="radialGradient5767"
       gradientUnits="userSpaceOnUse"
       cy="121.02"
       cx="-218.17999"
       gradientTransform="matrix(1,0,0,0.98386,280.14,108.84)"
       r="69.085999"
       inkscape:collect="always">
      <stop
         id="stop4595"
         style="stop-color:#fee5c3"
         offset="0" />
      <stop
         id="stop4593"
         style="stop-color:#fdfff8"
         offset="1" />
    </radialGradient>
    <linearGradient
       id="linearGradient5771"
       y2="214.35001"
       gradientUnits="userSpaceOnUse"
       x2="246.47"
       gradientTransform="translate(2.6843,-0.43855)"
       y1="156.46001"
       x1="108.32"
       inkscape:collect="always">
      <stop
         id="stop5654"
         style="stop-color:#ffffff;stop-opacity:0"
         offset="0" />
      <stop
         id="stop5652"
         style="stop-color:#ffffff"
         offset="1" />
    </linearGradient>
  </defs>
  <sodipodi:namedview
     id="namedview4"
     bordercolor="#666666"
     inkscape:pageshadow="2"
     guidetolerance="10"
     pagecolor="#ffffff"
     gridtolerance="10"
     inkscape:window-maximized="1"
     inkscape:zoom="4.5604416"
     objecttolerance="10"
     borderopacity="1"
     inkscape:current-layer="g5737"
     inkscape:cx="176.07944"
     inkscape:cy="107.99393"
     inkscape:window-y="0"
     inkscape:window-x="1920"
     inkscape:window-width="3840"
     showgrid="false"
     inkscape:pageopacity="0"
     inkscape:window-height="2095"
     inkscape:showpageshadow="2"
     inkscape:pagecheckerboard="0"
     inkscape:deskcolor="#d1d1d1" />
  <g
     id="g5737"
     transform="translate(-29.556544,-91.167071)">
    <path
       id="path5692"
       d="m 145.91,97.188 c -4.0977,-0.04749 -8.2617,0.34728 -12.281,0.71875 -10.585,0.97824 -21.099,3.5992 -31,7.4688 -7.4997,2.931 -14.709,6.875 -21.094,11.781 -7.5354,5.7903 -13.857,13.088 -19.844,20.469 -7.2243,8.9062 -14.431,18.111 -19.219,28.531 -3.5806,7.7932 -6.338,16.22 -6.8438,24.781 -0.40686,6.8882 1.5419,13.745 3.0938,20.469 0.96307,4.1724 1.9195,8.4558 3.8438,12.281 1.787,3.5525 3.8506,7.2381 7.0312,9.625 0.61852,0.46416 1.2543,0.92558 1.9062,1.3438 1.4243,1.9491 3.0406,4.1027 4.2812,5.5 4.1746,4.7018 8.447,9.4789 13.656,13 6.2087,4.1966 13.35,6.9706 20.469,9.3125 6.6248,2.1794 13.467,4.1341 20.438,4.3438 8.3582,0.25138 16.868,-1.1101 24.812,-3.7188 7.9955,-2.6253 15.307,-7.1653 22.344,-11.781 4.6909,-3.0772 9.093,-6.6304 13.125,-10.531 2.9059,-2.8113 5.4315,-6.0213 7.9062,-9.2188 3.599,-4.6501 7.2798,-9.3056 10.094,-14.469 2.949,-5.4109 5.1377,-11.22 7,-17.094 1.5862,-5.003 2.7905,-10.144 3.5,-15.344 0.85065,-6.235 1.3671,-12.602 0.875,-18.875 -0.39684,-5.059 -1.853,-9.978 -3.0625,-14.906 -1.2683,-5.1678 -2.0226,-10.571 -4.375,-15.344 -2.1715,-4.4058 -5.6847,-8.0309 -8.7812,-11.844 -2.2195,-2.7329 -4.4228,-5.5077 -7,-7.9062 -1.0567,-0.98346 -2.7968,-2.3021 -4.25,-3.375 -1.1172,-1.5847 -2.3257,-3.0978 -3.6562,-4.5 -3.2344,-3.4085 -6.6648,-7.0948 -11.062,-8.75 -3.7779,-1.4219 -7.8086,-1.9213 -11.906,-1.9688 z"
       style="display:inline;opacity:1;fill:#000000;fill-opacity:1;stroke:#000000;stroke-width:4;stroke-dasharray:none;stroke-opacity:1"
       inkscape:connector-curvature="0"
       inkscape:highlight-color="#ffffff" />
    <path
       id="path4601"
       d="M 168.9,109.52 47.34,229.22 c 0,0 4.6973,6.8315 7.4425,9.9234 4.1746,4.7018 8.4353,9.5033 13.645,13.024 6.2087,4.1966 13.348,6.9612 20.467,9.3031 6.6248,2.1794 13.496,4.1318 20.467,4.3415 8.3582,0.25138 16.864,-1.1126 24.808,-3.7213 7.9955,-2.6253 15.291,-7.168 22.328,-11.784 4.6909,-3.0772 9.1019,-6.6236 13.134,-10.524 2.9059,-2.8113 5.4193,-6.0122 7.894,-9.2096 3.599,-4.6501 7.2728,-9.3091 10.087,-14.472 2.949,-5.4109 5.1545,-11.229 7.0169,-17.104 1.5862,-5.003 2.799,-10.149 3.5084,-15.349 0.85065,-6.235 1.3692,-12.584 0.8771,-18.858 -0.39684,-5.059 -1.8603,-9.9826 -3.0699,-14.911 -1.2683,-5.1678 -2.0331,-10.576 -4.3855,-15.349 -2.1715,-4.4058 -5.6745,-8.0281 -8.7711,-11.841 -2.2195,-2.7329 -4.4397,-5.4955 -7.0169,-7.894 -2.1134,-1.9669 -6.8695,-5.2752 -6.8695,-5.2752 z"
       sodipodi:nodetypes="ccaaaaaaaaaaaaaaaac"
       style="display:inline;fill:#000000;fill-opacity:1"
       inkscape:connector-curvature="0" />
    <path
       id="path4577"
       d="m 37.734,210.42 c -1.5519,-6.7234 -3.5079,-13.579 -3.101,-20.467 0.5057,-8.5615 3.2417,-17.015 6.8223,-24.808 4.7877,-10.421 12.002,-19.623 19.226,-28.53 5.9866,-7.3804 12.311,-14.677 19.847,-20.467 6.3848,-4.9062 13.587,-8.8529 21.087,-11.784 9.9011,-3.8695 20.425,-6.4643 31.01,-7.4425 8.0391,-0.74293 16.632,-1.6034 24.188,1.2404 4.3977,1.6552 7.8261,5.331 11.06,8.7395 2.9594,3.1188 5.2806,6.8165 7.4554,10.525 1.72,2.9331 3.7808,5.8637 4.3855,9.2096 1.3309,7.3643 -0.52556,15.019 -1.947,22.366 -1.7704,9.1512 -4.4994,18.171 -8.1398,26.752 -2.939,6.9276 -6.4734,13.696 -10.964,19.735 -4.5032,6.0558 -10.017,11.363 -15.788,16.226 -6.9142,5.827 -14.445,10.989 -22.366,15.349 -7.8026,4.2948 -15.938,8.2874 -24.559,10.525 -8.2505,2.1418 -16.975,3.6622 -25.436,2.6313 -7.7114,-0.93952 -15.714,-3.2312 -21.928,-7.894 -3.1807,-2.3869 -5.2299,-6.0957 -7.0169,-9.6482 -1.9242,-3.8254 -2.874,-8.0875 -3.8371,-12.26 z"
       sodipodi:nodetypes="aaaaaaaaaaaaaaaaaaaaa"
       style="display:inline;fill:#ffffff;fill-opacity:1"
       inkscape:connector-curvature="0" />
    <path
       id="path4587"
       d="m 42.887,218.17 c 2.1766,3.3948 5.2469,6.1746 8.3325,8.7711 2.8231,2.3755 5.7665,4.814 9.2096,6.1398 3.7236,1.4337 7.8617,1.4611 11.841,1.7542 1.0205,0.0752 2.047,0.0284 3.0699,0 5.2687,-0.14624 10.584,-0.0388 15.788,-0.87711 5.5316,-0.89116 10.99,-2.3918 16.226,-4.3855 6.1097,-2.3263 12.049,-5.2268 17.542,-8.7711 5.0647,-3.2677 9.5578,-7.3656 14.034,-11.402 4.2986,-3.8769 8.5127,-7.8842 12.28,-12.28 4.8328,-5.6392 9.6461,-11.436 13.157,-17.981 4.1975,-7.8254 7.0514,-16.384 9.2096,-24.998 1.2913,-5.1539 2.007,-10.478 2.1928,-15.788 0.22538,-6.4431 0.91205,-13.246 -1.3157,-19.296 -1.6972,-4.6093 -5.142,-8.5309 -8.7711,-11.841 -3.538,-3.2269 -7.6681,-6.1651 -12.28,-7.4554 -5.9127,-1.6544 -12.291,-0.37231 -18.419,0 -6.0269,0.36614 -12.156,0.60319 -17.981,2.1928 -8.4628,2.3094 -16.421,6.3217 -24.12,10.525 -4.6262,2.5257 -9.0805,5.4295 -13.157,8.7711 -5.1161,4.1942 -9.6871,9.0465 -14.034,14.034 -3.9764,4.5625 -7.6959,9.3783 -10.964,14.472 -3.6729,5.725 -7.3226,11.589 -9.6482,17.981 -1.2253,3.3678 -1.2413,7.0702 -2.1928,10.525 -1.1906,4.3234 -3.5562,8.3111 -4.3855,12.718 -0.67646,3.5944 -0.77367,7.3217 -0.43856,10.964 0.30217,3.2842 1.2119,6.4994 2.1928,9.6482 0.70242,2.2548 1.3566,4.5902 2.6313,6.5783 z"
       sodipodi:nodetypes="aaaaaaaaaaaaaaaaaaaaaaaaaaaa"
       style="display:none;fill:url(#radialGradient5767)"
       inkscape:connector-curvature="0" />
    <path
       id="path4589"
       d="m 95.012,220.45 1.8606,4.0314 6.8223,-2.4808 h 0.3101 l 5.892,-4.6516 1.7596,-9.8537 2.5819,6.4425 h 2.7909 l 5.892,-2.7909 3.7212,-5.2718 7.1324,-2.7909 1.8606,-7.1324 4.0314,0.3101 11.232,-11.395 v -6.1398 h 2.8506 l 3.7277,-6.1398 1.9735,-7.6747 -2.6313,-0.87711 3.947,-3.5084 0.21928,-9.2096 3.5084,-2.6313 0.21928,-8.1132 -5.7012,-1.0964 5.4632,-4.3057 -0.3101,-4.9617 -2.7909,-0.93032 2.2426,-3.3975 -1.5349,-2.412 -1.9735,-3.0699 -4.6048,-0.87711 -4.8241,4.3855 3.947,-6.5783 -0.21927,-5.0434 -4.8241,-3.0699 h -8.1132 l -1.5349,1.0964 -6.359,0.21928 -2.1928,2.8506 -3.0699,-0.21927 0.87711,-4.6048 -9.8675,-0.87711 -5.9205,4.1663 -6.359,0.43856 -5.2626,3.7277 -0.87711,4.3855 0.21928,3.2892 -1.7542,-4.3855 -2.1928,-1.0964 -8.9904,4.1663 -3.0699,3.7277 -5.0434,2.8506 -5.4819,5.2626 -3.7277,5.0434 0.21928,2.1928 6.359,4.0699 -8.9904,-1.6578 -3.947,4.3855 -3.2892,3.0699 -4.3855,5.4819 -1.5349,4.3855 -1.3157,4.6048 0.21928,2.1928 3.7277,-0.43856 -5.7012,5.7012 -3.5084,5.7012 0.43855,3.947 h 5.0434 l -3.2892,3.0699 -3.2892,3.947 v 4.6048 l 6.1398,1.5349 3.947,1.3157 -4.1663,2.1928 -5.2626,3.2892 -1.5349,2.412 v 5.2626 l 2.1928,0.21928 -2.1928,2.6313 4.1663,4.6048 3.7277,2.1928 3.947,-1.0964 0.21928,2.8506 4.3855,3.0699 5.7012,-0.43855 3.2626,-5.2626 h 4.1928 l -3.7277,4.1663 1.0964,1.5349 3.7277,2.8506 3.7277,0.43856 5.4819,-0.87711 3.7277,-1.3157 2.1928,-2.6313 z"
       sodipodi:nodetypes="ccccccccccccccccccccccccccccccccccccccccccccccccccccccccccccccccccccccccccccccccccccccccccccccc"
       style="display:inline;fill:#000000;fill-opacity:1"
       inkscape:connector-curvature="0" />
    <path
       id="path4639"
       d="m 117.16,125.31 -10.531,2.625 -14.906,10.531 -15.781,13.156 -4.4062,12.281 -6.125,10.531 0.875,9.6562 -1.75,18.406 10.5,5.2812 43.875,-6.1562 13.156,-14.031 14.906,-23.688 6.125,-16.656 -2.625,-13.156 -13.156,-6.1562 -7.875,-1.75 -12.281,-0.875 z m -1.75,7.9062 21.906,6.125 1.75,17.562 -3.5,11.406 -12.281,11.375 -4.375,14.062 -17.562,-2.6562 H 81.192 l -4.375,-19.281 6.125,-16.656 16.656,-14.062 15.812,-7.875 z"
       style="display:none;fill:#c75942;filter:url(#filter4716)"
       inkscape:connector-curvature="0" />
    <path
       id="path5486"
       d="m 154.71,213.97 16.746,-17.366 13.024,-46.516 1.8606,44.035 -13.645,29.15 z"
       style="display:none;opacity:0.48161;fill:#ffccaa;filter:url(#filter5584)"
       inkscape:connector-curvature="0" />
    <path
       id="path4629"
       d="m 129.41,110.56 -10.75,37.906 -5.625,0.3125 -1.5312,4.1875 -4.8438,-0.4375 -1.9688,-3.3125 -0.15625,0.25 -4.2188,-35.719 v -0.1875 l -0.125,-0.0937 -0.625,-0.625 -0.71875,0.6875 0.5,0.5 4.3438,36.781 -2.5312,4.0312 -31.531,-12.656 -0.375,0.9375 30.125,12.094 -3.875,0.15625 v 5.9062 l -4.625,-0.4375 0.21875,2.4062 3.0625,1.5625 -0.875,2.8438 -3.733,0.23 0.438,2.62 -0.25,0.46875 -42.781,12.75 0.28125,0.96875 41.844,-12.5 -0.40625,0.71875 3.2812,0.21875 h 2.875 l 1.3125,5.0625 2.8438,-1.7812 0.65625,0.0625 -32.188,51.5 0.84375,0.53125 32.438,-51.938 2.8438,0.28125 3.2812,-3.0625 2.0312,2.1875 2.8125,38.031 1,-0.0625 -2.8438,-38.594 0.96875,-3.75 1.9688,-1.75 5.0312,1.0938 20.219,28.875 -0.59375,4.1562 1,0.15625 0.625,-4.3438 v -0.1875 l -0.0937,-0.1875 -20.812,-29.812 0.3125,-1.2812 3.9375,-4.5938 38.5,-1.6562 -0.0312,-1 -39.656,1.7188 -2.3125,-1.7188 3.75,-4.9688 40.906,-17.625 -0.40625,-0.9375 -41.406,17.875 -1.2812,-0.46875 1.0938,-3.75 -0.875,-2.8438 -1,0.0625 10.656,-37.562 -0.96875,-0.28125 z"
       style="display:inline;fill:#ffffff;fill-opacity:1"
       inkscape:connector-curvature="0" />
    <path
       id="path5648"
       d="m 89.518,230.57 48.679,-24.559 30.26,-49.118 -4.3855,-41.224 c 0,0 -16.237,19.179 -21.928,30.26 -3.3788,6.5796 -3.3932,14.603 -7.0169,21.051 -4.8786,8.6808 -13.369,14.804 -19.296,22.805 -9.631,13 -26.313,40.786 -26.313,40.786 z"
       sodipodi:nodetypes="ccccaaac"
       style="display:none;opacity:0.7893;fill:url(#linearGradient5771);filter:url(#filter5688)"
       inkscape:connector-curvature="0" />
  </g>
  <metadata
     id="metadata7223">
    <rdf:RDF>
      <cc:Work>
        <dc:format>image/svg+xml</dc:format>
        <dc:type
           rdf:resource="http://purl.org/dc/dcmitype/StillImage" />
        <cc:license
           rdf:resource="http://creativecommons.org/publicdomain/zero/1.0/" />
        <dc:publisher>
          <cc:Agent
             rdf:about="http://openclipart.org/">
            <dc:title>Openclipart</dc:title>
          </cc:Agent>
        </dc:publisher>
        <dc:title>Grapefruit</dc:title>
        <dc:date>2011-04-06T14:03:55</dc:date>
        <dc:description />
        <dc:source>https://openclipart.org/detail/131383/grapefruit-by-gnokii</dc:source>
        <dc:creator>
          <cc:Agent>
            <dc:title>gnokii</dc:title>
          </cc:Agent>
        </dc:creator>
        <dc:subject>
          <rdf:Bag>
            <rdf:li>citrus</rdf:li>
            <rdf:li>food</rdf:li>
            <rdf:li>fruit</rdf:li>
            <rdf:li>fruits</rdf:li>
            <rdf:li>grapefruit</rdf:li>
            <rdf:li>pink</rdf:li>
          </rdf:Bag>
        </dc:subject>
      </cc:Work>
      <cc:License
         rdf:about="http://creativecommons.org/publicdomain/zero/1.0/">
        <cc:permits
           rdf:resource="http://creativecommons.org/ns#Reproduction" />
        <cc:permits
           rdf:resource="http://creativecommons.org/ns#Distribution" />
        <cc:permits
           rdf:resource="http://creativecommons.org/ns#DerivativeWorks" />
      </cc:License>
    </rdf:RDF>
  </metadata>
</svg>
