<?xml version="1.0" encoding="UTF-8" standalone="no"?>
<!-- Generator: Adobe Illustrator 21.1.0, SVG Export Plug-In . SVG Version: 6.00 Build 0)  -->

<svg
   version="1.1"
   x="0px"
   y="0px"
   viewBox="0 0 283.5 283.5"
   style="enable-background:new 0 0 283.5 283.5;"
   xml:space="preserve"
   id="svg12956"
   sodipodi:docname="honey-vegan.svg"
   inkscape:version="1.2 (1:1.2.1+202207142221+cd75a1ee6d)"
   xmlns:inkscape="http://www.inkscape.org/namespaces/inkscape"
   xmlns:sodipodi="http://sodipodi.sourceforge.net/DTD/sodipodi-0.dtd"
   xmlns="http://www.w3.org/2000/svg"
   xmlns:svg="http://www.w3.org/2000/svg"><defs
   id="defs12960"><filter
     style="color-interpolation-filters:sRGB"
     inkscape:label="Greyscale"
     id="filter678"
     x="0"
     y="0"
     width="1"
     height="1"><feColorMatrix
       values="0.21 0.72 0.072 -10 0 0.21 0.72 0.072 -10 0 0.21 0.72 0.072 -10 0 0 0 0 1 0 "
       id="feColorMatrix676"
       result="fbSourceGraphic" /><feColorMatrix
       result="fbSourceGraphicAlpha"
       in="fbSourceGraphic"
       values="0 0 0 -1 0 0 0 0 -1 0 0 0 0 -1 0 0 0 0 1 0"
       id="feColorMatrix680" /><feColorMatrix
       id="feColorMatrix682"
       values="0.21 0.72 0.072 -10 0 0.21 0.72 0.072 -10 0 0.21 0.72 0.072 -10 0 0 0 0 1 0 "
       in="fbSourceGraphic" /></filter></defs><sodipodi:namedview
   id="namedview12958"
   pagecolor="#ffffff"
   bordercolor="#000000"
   borderopacity="0.25"
   inkscape:showpageshadow="2"
   inkscape:pageopacity="0.0"
   inkscape:pagecheckerboard="0"
   inkscape:deskcolor="#d1d1d1"
   showgrid="false"
   inkscape:zoom="3.5379189"
   inkscape:cx="332.68146"
   inkscape:cy="231.06805"
   inkscape:window-width="3840"
   inkscape:window-height="2095"
   inkscape:window-x="1920"
   inkscape:window-y="0"
   inkscape:window-maximized="1"
   inkscape:current-layer="svg12956" /><style
   type="text/css"
   id="style12791">
	.st0{stroke:#000000;stroke-width:3;stroke-linecap:round;stroke-linejoin:round;stroke-miterlimit:10;}
	.st1{fill:none;stroke:#000000;stroke-width:3;stroke-linecap:round;stroke-miterlimit:10;}
	.st2{fill:none;stroke:#FFFFFF;stroke-width:3;stroke-linecap:round;stroke-miterlimit:10;}
	.st3{fill:none;stroke:#000000;stroke-width:3;stroke-linecap:round;stroke-linejoin:round;stroke-miterlimit:10;}
	.st4{stroke:#000000;stroke-width:3;stroke-miterlimit:10;}
	
		.st5{clip-path:url(#SVGID_2_);fill:none;stroke:#FFFFFF;stroke-width:3;stroke-linecap:round;stroke-linejoin:round;stroke-miterlimit:10;}
	
		.st6{clip-path:url(#SVGID_4_);fill:none;stroke:#FFFFFF;stroke-width:3;stroke-linecap:round;stroke-linejoin:round;stroke-miterlimit:10;}
	.st7{fill:#FFFFFF;}
	.st8{fill:#FFFFFF;stroke:#000000;stroke-width:3;stroke-miterlimit:10;}
	.st9{fill:none;stroke:#000000;stroke-width:3;stroke-miterlimit:10;}
	.st10{fill:none;stroke:#000000;stroke-width:3;stroke-linecap:round;stroke-linejoin:bevel;}
	.st11{fill:#FFFFFF;stroke:#000000;stroke-width:3.7062;stroke-linecap:round;stroke-linejoin:round;stroke-miterlimit:10;}
	.st12{stroke:#000000;stroke-width:3.7062;stroke-linecap:round;stroke-miterlimit:10;}
	.st13{fill:none;stroke:#FFFFFF;stroke-width:3.7062;stroke-linecap:round;stroke-linejoin:round;stroke-miterlimit:10;}
	.st14{fill:#FFFFFF;stroke:#FFFFFF;stroke-width:0.4648;stroke-linecap:round;stroke-linejoin:round;stroke-miterlimit:10;}
	.st15{display:none;}
	.st16{display:inline;}
	.st17{fill:#FFFFFF;stroke:#000000;stroke-width:3.7062;stroke-linecap:round;stroke-miterlimit:10;}
	.st18{fill:none;stroke:#000000;stroke-width:3.7062;stroke-linecap:round;stroke-linejoin:round;stroke-miterlimit:10;}
	.st19{stroke:#000000;stroke-width:0.4648;stroke-linecap:round;stroke-linejoin:round;stroke-miterlimit:10;}
	.st20{fill:none;stroke:#000000;stroke-width:3;stroke-linecap:round;stroke-linejoin:round;}
	.st21{fill:none;stroke:#000000;stroke-width:2;stroke-linecap:round;stroke-linejoin:round;}
	.st22{stroke:#000000;stroke-width:3;stroke-linecap:round;stroke-linejoin:round;}
	.st23{fill:#FFFFFF;stroke:#000000;stroke-width:3;stroke-linecap:round;stroke-linejoin:round;}
	.st24{clip-path:url(#SVGID_6_);}
	.st25{clip-path:url(#SVGID_8_);fill:#FFFFFF;}
	.st26{clip-path:url(#SVGID_10_);fill:#FFFFFF;}
	.st27{clip-path:url(#SVGID_12_);fill:#FFFFFF;}
	.st28{clip-path:url(#SVGID_14_);fill:#FFFFFF;}
	.st29{clip-path:url(#SVGID_16_);fill:#FFFFFF;}
	.st30{clip-path:url(#SVGID_18_);fill:#FFFFFF;}
	.st31{clip-path:url(#SVGID_20_);fill:#FFFFFF;}
	.st32{clip-path:url(#SVGID_22_);fill:#FFFFFF;}
	.st33{clip-path:url(#SVGID_24_);fill:#FFFFFF;}
	.st34{clip-path:url(#SVGID_26_);fill:#FFFFFF;}
	.st35{clip-path:url(#SVGID_28_);fill:#FFFFFF;}
	.st36{clip-path:url(#SVGID_30_);fill:#FFFFFF;}
	.st37{clip-path:url(#SVGID_32_);fill:#FFFFFF;}
	.st38{clip-path:url(#SVGID_34_);fill:#FFFFFF;}
	.st39{clip-path:url(#SVGID_36_);fill:#FFFFFF;}
	.st40{clip-path:url(#SVGID_38_);fill:#FFFFFF;}
	.st41{clip-path:url(#SVGID_40_);fill:#FFFFFF;}
	.st42{clip-path:url(#SVGID_42_);fill:#FFFFFF;}
	.st43{clip-path:url(#SVGID_44_);fill:#FFFFFF;}
	.st44{clip-path:url(#SVGID_46_);fill:#FFFFFF;}
	.st45{clip-path:url(#SVGID_48_);fill:#FFFFFF;}
	.st46{clip-path:url(#SVGID_50_);fill:#FFFFFF;}
	.st47{clip-path:url(#SVGID_52_);fill:#FFFFFF;}
	.st48{clip-path:url(#SVGID_54_);fill:#FFFFFF;}
	.st49{clip-path:url(#SVGID_56_);fill:#FFFFFF;}
	.st50{clip-path:url(#SVGID_58_);fill:#FFFFFF;}
	.st51{clip-path:url(#SVGID_60_);fill:#FFFFFF;}
	.st52{clip-path:url(#SVGID_62_);fill:#FFFFFF;}
	.st53{clip-path:url(#SVGID_64_);fill:#FFFFFF;}
	.st54{clip-path:url(#SVGID_66_);fill:#FFFFFF;}
	.st55{clip-path:url(#SVGID_68_);fill:#FFFFFF;}
	.st56{clip-path:url(#SVGID_70_);fill:#FFFFFF;}
	.st57{clip-path:url(#SVGID_72_);fill:#FFFFFF;}
	.st58{clip-path:url(#SVGID_74_);fill:#FFFFFF;}
	.st59{clip-path:url(#SVGID_76_);fill:#FFFFFF;}
	.st60{clip-path:url(#SVGID_78_);}
	.st61{clip-path:url(#SVGID_80_);}
	.st62{clip-path:url(#SVGID_82_);}
	.st63{clip-path:url(#SVGID_84_);}
	.st64{clip-path:url(#SVGID_86_);}
	.st65{clip-path:url(#SVGID_88_);}
	.st66{clip-path:url(#SVGID_90_);}
	.st67{clip-path:url(#SVGID_92_);}
	.st68{clip-path:url(#SVGID_94_);}
	.st69{clip-path:url(#SVGID_96_);}
	.st70{clip-path:url(#SVGID_98_);}
	.st71{clip-path:url(#SVGID_100_);}
	.st72{clip-path:url(#SVGID_102_);}
	.st73{clip-path:url(#SVGID_104_);}
	.st74{clip-path:url(#SVGID_106_);}
	.st75{clip-path:url(#SVGID_108_);}
	.st76{clip-path:url(#SVGID_110_);}
	.st77{clip-path:url(#SVGID_112_);}
	.st78{clip-path:url(#SVGID_114_);}
	.st79{clip-path:url(#SVGID_116_);}
	.st80{clip-path:url(#SVGID_118_);}
	.st81{clip-path:url(#SVGID_120_);}
	.st82{clip-path:url(#SVGID_122_);}
	.st83{clip-path:url(#SVGID_124_);}
	.st84{clip-path:url(#SVGID_126_);}
	.st85{clip-path:url(#SVGID_128_);}
	.st86{clip-path:url(#SVGID_130_);}
	.st87{clip-path:url(#SVGID_132_);}
	.st88{clip-path:url(#SVGID_134_);}
	.st89{clip-path:url(#SVGID_136_);}
	.st90{clip-path:url(#SVGID_138_);}
	.st91{clip-path:url(#SVGID_140_);}
	.st92{clip-path:url(#SVGID_142_);}
	.st93{clip-path:url(#SVGID_144_);}
	.st94{clip-path:url(#SVGID_146_);}
	.st95{clip-path:url(#SVGID_148_);}
	.st96{stroke:#000000;stroke-width:3;}
	.st97{fill:#231F20;}
	.st98{fill:none;stroke:#F1F2F2;stroke-width:0.9457;stroke-miterlimit:10;}
	.st99{display:inline;fill:none;stroke:#000000;stroke-width:0.75;}
	.st100{fill:none;stroke:#231F20;stroke-miterlimit:10;}
	.st101{stroke:#000000;stroke-width:3;stroke-linecap:round;stroke-linejoin:bevel;stroke-miterlimit:10;}
	.st102{fill:#FFFFFF;stroke:#000000;stroke-width:3;stroke-linecap:round;stroke-linejoin:round;stroke-miterlimit:10;}
	.st103{fill:#FFFFFF;stroke:#000000;stroke-width:3;stroke-linecap:round;stroke-linejoin:bevel;stroke-miterlimit:10;}
	.st104{fill:none;stroke:#000000;stroke-width:3;stroke-linecap:round;stroke-linejoin:bevel;stroke-miterlimit:10;}
	
		.st105{display:none;fill:#FFFFFF;stroke:#231F20;stroke-width:3;stroke-linecap:round;stroke-linejoin:round;stroke-miterlimit:10;}
	.st106{clip-path:url(#SVGID_150_);}
	.st107{fill:none;}
	.st108{fill:#FFFFFF;stroke:#000000;stroke-width:4.9959;stroke-linecap:round;stroke-linejoin:round;stroke-miterlimit:10;}
	.st109{clip-path:url(#SVGID_152_);}
	.st110{clip-path:url(#SVGID_154_);}
	.st111{fill:#FFFFFF;stroke:#000000;stroke-width:2.1411;stroke-linecap:round;stroke-linejoin:round;stroke-miterlimit:10;}
	.st112{clip-path:url(#SVGID_156_);}
	.st113{display:none;fill:#FFFFFF;}
</style><rect
   x="199.60001"
   y="93.800003"
   transform="matrix(1.772466,1.3492668,-1.5254103,1.5677942,46.27298,-402.85555)"
   class="st4"
   width="7"
   height="136.8"
   id="rect12929"
   style="enable-background:new 0 0 283.5 283.5" /><path
   d="m 214.1,123.6 c -4.34025,-0.93095 -10.31345,-1.24521 -11.27031,-6.7125 0.1001,-6.56932 2.33396,-12.98621 3.37031,-19.4875 1.23618,-6.321436 8.24843,-6.070342 13.04448,-4.518383 6.08235,0.408535 7.72146,7.122363 5.85256,11.971163 -1.33227,5.24678 -1.60689,10.86082 -3.8111,15.80816 -1.56549,2.25526 -4.48434,3.47143 -7.18594,2.93906 z"
   id="path12931"
   style="enable-background:new 0 0 283.5 283.5"
   transform="matrix(2.0440281,1.004749,-1.1359165,1.8079983,-72.031072,-371.85231)" /><path
   class="st1"
   d="m 214.1,123.6 c -4.34025,-0.93095 -10.31345,-1.24521 -11.27031,-6.7125 0.1001,-6.56932 2.33396,-12.98621 3.37031,-19.4875 1.23618,-6.321436 8.24843,-6.070342 13.04448,-4.518383 6.08235,0.408535 7.72146,7.122363 5.85256,11.971163 -1.33227,5.24678 -1.60689,10.86082 -3.8111,15.80816 -1.56549,2.25526 -4.48434,3.47143 -7.18594,2.93906 z"
   id="path12933"
   style="enable-background:new 0 0 283.5 283.5"
   transform="matrix(2.0440281,1.004749,-1.1359165,1.8079983,-72.031072,-371.85231)" /><path
   class="st96"
   d="m 212.3,227.6 c 1.28292,-4.23238 -6.42256,-3.77745 -1.06562,-6.37031 3.32728,-4.83981 -7.14429,-4.87706 -1.20001,-7.45782 3.29162,-4.81081 -7.14534,-4.81786 -1.2,-7.4 2.06591,-5.57482 -4.93682,-5.7957 -8.57319,-6.61933 -5.58686,-0.96936 -11.0992,-2.67556 -16.73618,-3.14941 -6.55643,1.65571 1.7398,8.18283 -5.425,6.94687 -4.33345,3.08211 2.69423,7.15545 -4.1,6.4 -4.69218,2.63542 3.00352,7.21057 -3.5,6.5 -6.18517,4.04325 5.45225,6.50598 -0.53437,8.67813 -3.29162,4.81081 7.14534,4.81786 1.2,7.4 -3.29162,4.81081 7.14534,4.81786 1.2,7.4 -2.06591,5.57482 4.93682,5.7957 8.57319,6.61933 5.58686,0.96936 11.0992,2.67556 16.73618,3.14942 6.55643,-1.65572 -1.7398,-8.18284 5.425,-6.94688 4.33345,-3.08211 -2.69423,-7.15545 4.1,-6.4 4.61247,-2.51106 -2.79982,-7.25458 3.5125,-6.4125 l 1.01406,-0.98594 z"
   id="path12937"
   style="enable-background:new 0 0 283.5 283.5"
   transform="matrix(2.0440281,1.004749,-1.1359165,1.8079983,-72.031072,-371.85231)" />



<path
   style="fill:#227f0b;fill-opacity:1;stroke:none;stroke-width:2.82843;stroke-linejoin:round;stroke-miterlimit:4;stroke-dasharray:none;stroke-opacity:1;filter:url(#filter678)"
   d="m 368.52344,77.306647 c -77.33453,-3.18e-4 -151.50173,30.720563 -206.18551,85.404333 -54.68377,54.68377 -85.404654,128.85097 -85.40434,206.1855 0.0037,149.81027 113.52968,275.24194 262.59766,290.13672 -0.40428,-9.28664 -1.01596,-19.22767 -1.97266,-26.23829 C 325.83757,546.90381 309.18388,460.95228 281.14258,378.92577 244.55011,271.88536 166.96875,165.35351 166.96875,165.35351 c 0,0 38.20319,16.61671 55.30273,30.5 25.73162,20.89177 48.8573,53.48612 66.53711,82.18164 48.18686,78.21051 82.33008,247.30078 82.33008,247.30078 0,0 37.8313,-102.69104 61.78906,-151.7832 21.28764,-43.62079 51.4769,-86.39005 75.38282,-125.3125 -14.30318,-1.77269 -26.66186,9.94908 -38.49219,19.84961 -16.22464,13.57804 -41.8711,58.38281 -41.8711,58.38281 0,0 3.47218,-51.97963 9.33594,-68.92578 8.61217,-24.88897 26.30678,-46.27253 46.61914,-56.87696 14.57197,-7.60755 81.02753,-19.12129 104.27539,-22.99218 C 532.90668,114.04768 452.80661,77.445935 368.52344,77.306647 c 0,0 0,0 0,0 M 616.35742,215.65624 c -3.82446,29.36501 -11.14777,68.98622 -24.30664,88.76758 -8.83056,13.27474 -32.73059,24.55885 -47.10742,31.45117 -23.21077,11.12735 -59.07422,12.71289 -59.07422,12.71289 0,0 -35.42853,64.35228 -47.57031,98.8418 -23.78802,67.57141 -40.0924,141.88788 -48.66797,209.32617 -0.12661,0.99565 -0.24023,1.98846 -0.35742,2.98242 152.59718,-10.8871 270.83392,-137.85673 270.83789,-290.84179 -0.0723,-54.15196 -15.22282,-107.21398 -43.75391,-153.24024 0,0 0,0 0,0"
   id="path3729"
   transform="matrix(0.22723748,0,0,0.22719868,127.84665,122.77869)" /></svg>
