<?xml version="1.0" encoding="UTF-8" standalone="no"?>
<!-- Created with Inkscape (http://www.inkscape.org/) -->

<svg
   width="347.62335"
   height="347.62723"
   id="svg2"
   version="1.1"
   inkscape:version="1.2 (1:1.2.1+202207142221+cd75a1ee6d)"
   sodipodi:docname="non-alc.svg"
   xmlns:inkscape="http://www.inkscape.org/namespaces/inkscape"
   xmlns:sodipodi="http://sodipodi.sourceforge.net/DTD/sodipodi-0.dtd"
   xmlns="http://www.w3.org/2000/svg"
   xmlns:svg="http://www.w3.org/2000/svg"
   xmlns:rdf="http://www.w3.org/1999/02/22-rdf-syntax-ns#"
   xmlns:cc="http://creativecommons.org/ns#"
   xmlns:dc="http://purl.org/dc/elements/1.1/">
  <defs
     id="defs4">
    <linearGradient
       id="linearGradient1663"
       inkscape:swatch="gradient">
      <stop
         style="stop-color:#ffffff;stop-opacity:1;"
         offset="0"
         id="stop1659" />
      <stop
         style="stop-color:#000000;stop-opacity:0;"
         offset="1"
         id="stop1661" />
    </linearGradient>
    <linearGradient
       id="linearGradient4003">
      <stop
         offset="0"
         style="stop-color:#a4a569"
         id="stop4005" />
      <stop
         offset=".45275"
         style="stop-color:#9f7f25"
         id="stop4011" />
      <stop
         offset=".76220"
         style="stop-color:#866e24"
         id="stop4013" />
      <stop
         offset="1"
         style="stop-color:#775c15"
         id="stop4007" />
    </linearGradient>
    <linearGradient
       id="linearGradient4461">
      <stop
         offset="0"
         style="stop-color:#99aab4"
         id="stop4463" />
      <stop
         offset="1"
         style="stop-color:#d9dfe3"
         id="stop4465" />
    </linearGradient>
  </defs>
  <sodipodi:namedview
     id="base"
     pagecolor="#ffffff"
     bordercolor="#666666"
     borderopacity="1.0"
     inkscape:pageopacity="0.0"
     inkscape:pageshadow="2"
     inkscape:zoom="1.4"
     inkscape:cx="-172.14286"
     inkscape:cy="174.64286"
     inkscape:document-units="px"
     inkscape:current-layer="layer1-7"
     showgrid="false"
     inkscape:window-width="3840"
     inkscape:window-height="2095"
     inkscape:window-x="1920"
     inkscape:window-y="0"
     inkscape:window-maximized="1"
     fit-margin-top="0"
     fit-margin-left="0"
     fit-margin-right="0"
     fit-margin-bottom="0"
     inkscape:showpageshadow="2"
     inkscape:pagecheckerboard="0"
     inkscape:deskcolor="#d1d1d1" />
  <metadata
     id="metadata7">
    <rdf:RDF>
      <cc:Work
         rdf:about="">
        <dc:format>image/svg+xml</dc:format>
        <dc:type
           rdf:resource="http://purl.org/dc/dcmitype/StillImage" />
      </cc:Work>
    </rdf:RDF>
  </metadata>
  <g
     inkscape:label="Layer 1"
     inkscape:groupmode="layer"
     id="layer1"
     transform="translate(-383.33118,-29.9752)">
    <g
       id="g3734">
      <path
         inkscape:connector-curvature="0"
         id="path3155"
         d="m 557.22999,74.353257 c -1.52548,0.013 -3.00001,0.0849 -4.39768,0.19307 -2.6247,0.20304 -4.9889,0.55678 -6.88612,1.0297 -2.2766,0.56754 -3.89821,1.30631 -4.5693,2.12376 -0.22371,0.27247 -0.34323,0.54752 -0.34323,0.83663 0.0377,0.59538 -0.18498,1.25067 -0.25743,1.75907 0,0.75505 0.46893,1.48435 1.26567,2.14521 -1.33627,3.74791 -2.59371,6.90174 -1.73761,10.38281 0.24063,0.97849 1.62761,1.34369 1.88778,2.31683 0.81525,3.04949 -0.99486,7.977603 -1.43729,9.374563 -0.49505,1.56364 -0.94355,3.14529 -1.33003,4.74092 -0.3865,1.59562 -0.71945,3.19904 -1.00825,4.78381 -0.28875,1.58478 -0.54902,3.16698 -0.75082,4.69801 -0.20184,1.53103 -0.34624,3.02773 -0.47195,4.46204 -0.1257,1.4343 -0.23993,2.8026 -0.30033,4.09735 -0.0604,1.29474 -0.0799,2.51319 -0.0858,3.6254 0,8.5726 2.69133,12.72092 1.26568,18.87784 -2.5041,10.8146 -15.87541,16.71135 -16.23924,30.03293 -0.36422,13.32158 -0.30366,24.87773 -0.30033,36.4042 0.003,11.52647 -0.0497,23.01758 -0.10726,34.36625 -0.0574,11.34799 -0.1181,22.56314 -0.15016,33.50817 -0.0161,5.47238 -0.27178,10.79864 -0.0214,16.19633 0.24405,5.26239 8.6e-4,0.008 1.48019,15.74584 0,7.92701 12.32848,14.49027 29.71115,15.61712 0.54136,0.0351 1.10089,0.0614 1.65181,0.0858 0.0359,0.002 0.0713,-0.002 0.10726,0 0.57293,0.0246 1.13343,0.0515 1.71617,0.0644 0.0217,5e-4 0.0426,-5e-4 0.0643,0 0.59836,0.0127 1.2153,0.0215 1.82343,0.0215 0.61515,0 1.21837,-0.008 1.82343,-0.0215 1.20325,-0.0273 2.38087,-0.0703 3.5396,-0.15017 17.36661,-1.13045 29.66824,-7.69304 29.66824,-15.61712 1.41247,-16.77794 1.18024,-11.16916 1.41584,-16.77554 0.23497,-5.59175 10e-6,-11.20091 0,-16.79699 -4e-5,-11.20039 -5e-5,-22.39083 0,-33.59397 4e-5,-11.20314 -5e-5,-22.41298 0,-33.61543 5e-5,-11.20246 -0.0111,-22.38809 -0.4505,-35.56757 -0.24706,-7.40995 -4.57886,-12.54382 -8.7739,-17.52636 -1.79568,-3.56345 -4.02114,-6.8986 -6.6716,-9.7607 -0.35285,-0.84751 -0.66798,-1.70873 -0.87954,-2.61716 -1.43568,-6.16502 1.28713,-10.30524 1.28713,-18.87784 -0.0476,-1.08455 -0.13982,-2.2777 -0.23598,-3.56105 -0.0962,-1.28335 -0.2127,-2.66188 -0.36468,-4.09735 -0.15199,-1.43547 -0.32115,-2.94271 -0.5363,-4.48348 -0.21516,-1.54078 -0.44368,-3.12007 -0.72938,-4.71946 -0.28566,-1.5994 -0.62326,-3.21545 -0.98679,-4.82673 -0.36355,-1.61134 -0.75258,-3.20727 -1.20132,-4.78381 -0.39757,-1.39669 -2.13996,-6.323533 -1.30858,-9.353113 0.2612,-0.95186 1.5877,-1.31493 1.82343,-2.27393 0.85712,-3.48601 -0.36081,-6.64791 -1.69471,-10.40426 0.79129,-0.65731 1.26567,-1.37215 1.26567,-2.12376 -0.11561,-0.6433 -0.22362,-1.19871 -0.27888,-1.75907 0,-1.89245 -5.0014,-3.47245 -11.88446,-3.99009 -0.48078,-0.0384 -0.95988,-0.0803 -1.45874,-0.10726 -0.0279,-0.001 -0.0579,10e-4 -0.0858,0 -0.007,-3.6e-4 -0.0145,3.6e-4 -0.0215,0 -0.16939,-0.009 -0.34359,-0.0139 -0.51485,-0.0214 -0.34505,-0.0151 -0.69902,-0.0335 -1.05115,-0.0429 -0.0142,-3.6e-4 -0.0287,3.5e-4 -0.0429,0 -0.54666,-0.0143 -1.11194,-0.0215 -1.67326,-0.0215 -0.1895,0 -0.36977,-0.002 -0.55775,0 z"
         style="opacity:0.95814;fill:#000000" />
      <g
         inkscape:label="Layer 1"
         id="layer1-7"
         transform="matrix(0.60380952,0,0,0.60380952,330.71428,-117.66234)">
        <path
           id="path3623"
           style="fill:#000000;fill-opacity:1;stroke:#ffffff;stroke-width:6.62461;stroke-dasharray:none;stroke-opacity:1"
           d="m 366.77148,247.93164 c -4.75402,0.19417 -9.50782,0.39213 -14.24967,0.79545 -3.90672,0.28499 -7.80349,0.71411 -11.69446,1.16044 -4.39198,0.55105 -8.7758,1.15746 -13.13834,1.90952 -3.80052,0.62045 -7.58052,1.37071 -11.35276,2.14227 -4.32755,0.93214 -8.64131,1.92246 -12.92264,3.0496 -3.7323,0.94857 -7.43291,2.02497 -11.12288,3.12499 -4.26064,1.31507 -8.50291,2.6856 -12.69996,4.19262 -3.60246,1.26415 -7.16381,2.64802 -10.71442,4.05006 -4.09886,1.66922 -8.17418,3.39303 -12.19369,5.24617 -3.51044,1.58379 -6.9676,3.28775 -10.41227,5.0087 -3.96758,2.03492 -7.90643,4.12295 -11.77839,6.33523 -3.32849,1.87068 -6.59661,3.85084 -9.84931,5.84958 -3.77505,2.37357 -7.51638,4.79825 -11.18119,7.33941 -3.15316,2.1522 -6.23665,4.40821 -9.30096,6.68438 -3.52671,2.67451 -7.02076,5.39029 -10.42247,8.22286 -2.98008,2.43955 -5.88041,4.9778 -8.76192,7.53231 -3.28094,2.97124 -6.52289,5.98365 -9.6654,9.10156 -2.75557,2.68896 -5.42211,5.47033 -8.06958,8.26503 -3.00995,3.24545 -5.97762,6.52857 -8.8359,9.90898 -2.51082,2.91994 -4.92686,5.92257 -7.31908,8.93984 -2.71437,3.49611 -5.38715,7.02316 -7.94025,10.63934 -2.24683,3.12754 -4.38787,6.33205 -6.51057,9.54452 -2.40079,3.71838 -4.75367,7.46627 -6.9825,11.29073 -1.96747,3.31062 -3.82113,6.68979 -5.65495,10.07571 -2.06703,3.91362 -4.08306,7.85267 -5.97025,11.8566 -1.67151,3.4696 -3.22277,6.99783 -4.75731,10.52963 -1.7185,4.07853 -3.3831,8.17852 -4.91472,12.33132 -1.36279,3.60195 -2.60269,7.25123 -3.81916,10.90468 -1.36541,4.24478 -2.67703,8.50561 -3.84931,12.8082 -1.029137,3.67635 -1.938102,7.38725 -2.827665,11.09942 -0.983746,4.31578 -1.912656,8.64292 -2.698999,12.99947 -0.713672,3.78438 -1.303754,7.59302 -1.868344,11.402 -0.607941,4.4181 -1.156787,8.84287 -1.565291,13.28426 -0.376506,3.79818 -0.627239,7.60986 -0.856957,11.41938 -0.218598,4.42085 -0.384268,8.84324 -0.402113,13.26994 -0.04772,3.85053 0.03421,7.70346 0.1408,11.55233 0.167289,4.45653 0.396678,8.90941 0.76527,13.35422 0.287504,3.80613 0.702037,7.60381 1.138654,11.39526 0.551055,4.39198 1.157463,8.7758 1.909523,13.13834 0.620452,3.80052 1.370714,7.58052 2.142275,11.35276 0.932141,4.32755 1.922454,8.64131 3.049599,12.92264 0.948568,3.7323 2.024968,7.43291 3.124988,11.12288 1.31507,4.26064 2.6856,8.50291 4.19262,12.69996 1.26415,3.60246 2.64802,7.16381 4.05006,10.71442 1.66922,4.09886 3.39303,8.17418 5.24617,12.19369 1.58379,3.51044 3.28775,6.9676 5.0087,10.41227 2.03492,3.96758 4.12295,7.90643 6.33523,11.77839 1.87068,3.32849 3.85084,6.59661 5.84958,9.84931 2.37357,3.77505 4.79825,7.51638 7.33941,11.18119 2.1522,3.15316 4.40821,6.23665 6.68438,9.30096 2.67451,3.52671 5.39029,7.02076 8.22286,10.42247 2.43955,2.98008 4.9778,5.88041 7.53231,8.76192 2.97124,3.28094 5.98365,6.52289 9.10156,9.6654 2.68896,2.75557 5.47033,5.42211 8.26503,8.06958 3.24545,3.00995 6.52857,5.97762 9.90898,8.8359 2.91994,2.51082 5.92257,4.92686 8.93984,7.31908 3.49611,2.71437 7.02316,5.38715 10.63934,7.94025 3.12754,2.24683 6.33205,4.38787 9.54452,6.51057 3.71838,2.40079 7.46627,4.75367 11.29073,6.9825 3.31062,1.96747 6.68979,3.82113 10.07571,5.65495 3.91362,2.06703 7.85267,4.08306 11.8566,5.97025 3.4696,1.67151 6.99783,3.22277 10.52963,4.75731 4.07853,1.7185 8.17852,3.3831 12.33132,4.91472 3.60195,1.36279 7.25123,2.60269 10.90468,3.81916 4.24478,1.36541 8.50561,2.67703 12.8082,3.84931 3.67635,1.02914 7.38725,1.9381 11.09942,2.82766 4.31578,0.98375 8.64292,1.91266 12.99947,2.699 3.78438,0.71368 7.59302,1.30376 11.402,1.86835 4.4181,0.60794 8.84287,1.15679 13.28426,1.56529 3.79818,0.3765 7.60986,0.62724 11.41938,0.85696 4.42085,0.21859 8.84324,0.38426 13.26994,0.40211 3.85053,0.0477 7.70346,-0.0342 11.55233,-0.1408 4.45653,-0.16729 8.90941,-0.39668 13.35422,-0.76527 3.80613,-0.2875 7.60381,-0.70204 11.39526,-1.13866 4.39198,-0.55105 8.7758,-1.15746 13.13834,-1.90952 3.80052,-0.62045 7.58052,-1.37071 11.35276,-2.14227 4.32755,-0.93214 8.64131,-1.92246 12.92264,-3.0496 3.7323,-0.94857 7.43291,-2.02497 11.12288,-3.12499 4.26064,-1.31507 8.50291,-2.6856 12.69996,-4.19262 3.60246,-1.26415 7.16381,-2.64802 10.71442,-4.05006 4.09886,-1.66922 8.17418,-3.39303 12.19369,-5.24617 3.51044,-1.58379 6.9676,-3.28775 10.41227,-5.0087 3.96758,-2.03492 7.90643,-4.12295 11.77839,-6.33523 3.32849,-1.87068 6.59661,-3.85084 9.84931,-5.84958 3.77505,-2.37357 7.51638,-4.79825 11.18119,-7.33941 3.15316,-2.1522 6.23665,-4.40821 9.30096,-6.68438 3.52671,-2.67451 7.02076,-5.39029 10.42247,-8.22286 2.98008,-2.43955 5.88041,-4.9778 8.76192,-7.53231 3.28094,-2.97124 6.52289,-5.98365 9.6654,-9.10156 2.75557,-2.68896 5.42211,-5.47033 8.06958,-8.26503 3.00995,-3.24545 5.97762,-6.52857 8.8359,-9.90898 2.51082,-2.91994 4.92686,-5.92257 7.31908,-8.93984 2.71437,-3.49611 5.38715,-7.02316 7.94025,-10.63934 2.24683,-3.12754 4.38787,-6.33205 6.51057,-9.54452 2.40079,-3.71838 4.75367,-7.46627 6.9825,-11.29073 1.96747,-3.31062 3.82113,-6.68979 5.65495,-10.07571 2.06703,-3.91362 4.08306,-7.85267 5.97025,-11.8566 1.67151,-3.4696 3.22277,-6.99783 4.75731,-10.52963 1.7185,-4.07853 3.3831,-8.17852 4.91472,-12.33132 1.36279,-3.60195 2.60269,-7.25123 3.81916,-10.90468 1.36541,-4.24478 2.67703,-8.50561 3.84931,-12.8082 1.02914,-3.67635 1.9381,-7.38725 2.82766,-11.09942 0.98375,-4.31578 1.91266,-8.64292 2.699,-12.99947 0.71368,-3.78438 1.30376,-7.59302 1.86835,-11.402 0.60794,-4.4181 1.15679,-8.84287 1.56529,-13.28426 0.3765,-3.79818 0.62724,-7.60986 0.85696,-11.41938 0.21859,-4.42085 0.38426,-8.84324 0.40211,-13.26994 0.0477,-3.85053 -0.0342,-7.70346 -0.1408,-11.55233 -0.16729,-4.45653 -0.39668,-8.90941 -0.76527,-13.35422 -0.2875,-3.80613 -0.70204,-7.60381 -1.13866,-11.39526 -0.55105,-4.39198 -1.15746,-8.7758 -1.90952,-13.13834 -0.62045,-3.80052 -1.37071,-7.58052 -2.14227,-11.35276 -0.93214,-4.32755 -1.92246,-8.64131 -3.0496,-12.92264 -0.94857,-3.7323 -2.02497,-7.43291 -3.12499,-11.12288 -1.31507,-4.26064 -2.6856,-8.50291 -4.19262,-12.69996 -1.26415,-3.60246 -2.64802,-7.16381 -4.05006,-10.71442 -1.66922,-4.09886 -3.39303,-8.17418 -5.24617,-12.19369 -1.58379,-3.51044 -3.28775,-6.9676 -5.0087,-10.41227 -2.03492,-3.96758 -4.12295,-7.90643 -6.33523,-11.77839 -1.87068,-3.32849 -3.85084,-6.59661 -5.84958,-9.84931 -2.37357,-3.77505 -4.79825,-7.51638 -7.33941,-11.18119 -2.1522,-3.15316 -4.40821,-6.23665 -6.68438,-9.30096 -2.67451,-3.52671 -5.39029,-7.02076 -8.22286,-10.42247 -2.43955,-2.98008 -4.9778,-5.88041 -7.53231,-8.76192 -2.97124,-3.28094 -5.98365,-6.52289 -9.10156,-9.6654 -2.68896,-2.75557 -5.47033,-5.42211 -8.26503,-8.06958 -3.24545,-3.00995 -6.52857,-5.97762 -9.90898,-8.8359 -2.91994,-2.51082 -5.92257,-4.92686 -8.93984,-7.31908 -3.49611,-2.71437 -7.02316,-5.38715 -10.63934,-7.94025 -3.12754,-2.24683 -6.33205,-4.38787 -9.54452,-6.51057 -3.71838,-2.40079 -7.46627,-4.75367 -11.29073,-6.9825 -3.31062,-1.96747 -6.68979,-3.82113 -10.07571,-5.65495 -3.91362,-2.06703 -7.85267,-4.08306 -11.8566,-5.97025 -3.4696,-1.67151 -6.99783,-3.22277 -10.52963,-4.75731 -4.07853,-1.7185 -8.17852,-3.3831 -12.33132,-4.91472 -3.60195,-1.36279 -7.25123,-2.60269 -10.90468,-3.81916 -4.24478,-1.36541 -8.50561,-2.67703 -12.8082,-3.84931 -3.67635,-1.02914 -7.38725,-1.9381 -11.09942,-2.82766 -4.31578,-0.98375 -8.64292,-1.91266 -12.99947,-2.699 -3.78438,-0.71368 -7.59302,-1.30376 -11.402,-1.86835 -4.4181,-0.60794 -8.84287,-1.15679 -13.28426,-1.56529 -3.79818,-0.3765 -7.60986,-0.62724 -11.41938,-0.85696 -4.42085,-0.21859 -8.84324,-0.38426 -13.26994,-0.40211 -3.45239,-0.0696 -6.90523,0.0625 -10.35768,0.0888 z m 8.28125,50.41211 c 9.03469,0.007 18.06874,0.52773 27.04297,1.57227 1.02345,0.13072 2.31665,0.27368 3.44247,0.43046 5.37691,0.70216 10.72764,1.60125 16.04191,2.67891 0.9417,0.19554 2.15523,0.44005 3.19932,0.67369 1.35105,0.28821 2.73687,0.6184 3.99794,0.90444 4.81329,1.1416 9.59212,2.42798 14.32618,3.86328 0.57185,0.18179 1.46444,0.45556 2.15932,0.67264 1.6381,0.51969 3.07857,0.9865 4.69525,1.52906 15.64547,5.29104 30.72683,12.24505 44.91496,20.69869 0.54279,0.33333 1.36976,0.82748 2.02159,1.22251 4.94304,3.0175 9.77309,6.21931 14.48231,9.58999 0.55847,0.40964 1.35008,0.97847 1.99805,1.44922 0.54119,0.39699 1.33955,0.99423 1.98047,1.46679 18.42936,13.81056 34.8001,30.35866 48.41406,48.9336 0.37031,0.5185 0.93817,1.29646 1.38427,1.9145 0.79298,1.10683 1.73899,2.4461 2.57107,3.65688 2.90746,4.21915 5.67302,8.53557 8.30052,12.93448 0.32624,0.54702 0.8117,1.37917 1.19902,2.03558 8.2946,14.2429 15.08162,29.36378 20.20723,45.02887 0.25688,0.81965 0.6162,1.90038 0.90226,2.82905 0.29786,0.96714 0.56657,1.80027 0.83141,2.70532 1.33764,4.45015 2.53162,8.94293 3.60617,13.46368 0.14824,0.65969 0.37454,1.62668 0.55274,2.40429 0.18412,0.83577 0.43569,1.95096 0.63304,2.89969 0.33514,1.58763 0.62042,3.02383 0.93393,4.64323 1.0607,5.55479 1.91402,11.14875 2.56975,16.76568 0.11552,1.0266 0.26663,2.31882 0.37505,3.45205 1.00596,9.88706 1.37762,19.83817 1.09005,29.77244 -0.13301,4.73589 -0.41744,9.46663 -0.82803,14.18673 -0.41865,4.67024 -0.97147,9.32847 -1.66635,13.96605 -0.68969,4.61855 -1.51972,9.21656 -2.49348,13.78402 -0.98359,4.72597 -2.1454,9.41453 -3.4344,14.06655 -1.25783,4.58002 -2.67513,9.11635 -4.2215,13.60728 -1.16148,3.40396 -2.41837,6.77771 -3.74244,10.12162 -1.7723,4.4587 -3.67059,8.86767 -5.71421,13.20855 -1.9755,4.21388 -4.07881,8.36715 -6.30317,12.45474 -2.27942,4.1663 -4.67226,8.2697 -7.18731,12.2979 -2.23025,3.55302 -4.55916,7.04053 -6.95992,10.48041 -2.23073,3.12213 -4.48168,6.23326 -6.86937,9.23838 C 450.10547,566.55729 340.70508,457.16732 231.30469,347.77734 c 3.20666,-2.53285 6.51334,-4.93893 9.85664,-7.28714 3.82837,-2.67308 7.73917,-5.22657 11.71631,-7.672 3.61898,-2.21691 7.30699,-4.31426 11.02793,-6.35461 4.05429,-2.16919 8.16027,-4.23987 12.32661,-6.18608 4.23774,-1.97574 8.53578,-3.82098 12.88422,-5.54012 4.3301,-1.7181 8.71624,-3.295 13.14436,-4.74247 3.44903,-1.13934 6.93114,-2.18599 10.43198,-3.15408 4.48542,-1.24577 9.01054,-2.34597 13.56163,-3.32268 4.59785,-0.97903 9.2245,-1.81757 13.87077,-2.5296 4.17065,-0.6211 8.35427,-1.13702 12.5499,-1.5569 4.7362,-0.44217 9.4836,-0.75252 14.2372,-0.93352 2.71156,-0.10038 5.4275,-0.0964 8.14049,-0.15439 z m 143.64258,418.59766 c -3.20666,2.53285 -6.51334,4.93893 -9.85664,7.28714 -3.82837,2.67308 -7.73917,5.22657 -11.71631,7.672 -3.61898,2.21691 -7.30699,4.31426 -11.02793,6.35461 -4.05429,2.16919 -8.16027,4.23987 -12.32661,6.18608 -4.23774,1.97574 -8.53578,3.82098 -12.88422,5.54012 -4.3301,1.7181 -8.71624,3.295 -13.14436,4.74247 -3.44903,1.13934 -6.93114,2.18599 -10.43198,3.15408 -4.48542,1.24577 -9.01054,2.34597 -13.56163,3.32268 -4.59785,0.97903 -9.2245,1.81757 -13.87077,2.5296 -4.17065,0.6211 -8.35427,1.13702 -12.5499,1.5569 -4.7362,0.44217 -9.4836,0.75252 -14.2372,0.93352 -4.62741,0.14656 -9.25827,0.18122 -13.88703,0.0622 -4.42534,-0.11079 -8.85017,-0.32901 -13.26091,-0.71308 -3.91319,-0.29454 -7.81543,-0.73938 -11.7067,-1.24169 -4.70719,-0.62656 -9.3938,-1.39887 -14.05611,-2.29834 -4.09065,-0.81248 -8.16228,-1.71003 -12.20806,-2.72329 -4.60355,-1.16333 -9.17394,-2.45812 -13.70052,-3.89341 -3.29281,-1.03855 -6.56022,-2.16507 -9.80477,-3.34529 -3.93702,-1.44105 -7.82489,-3.00626 -11.68634,-4.63815 -4.30584,-1.86692 -8.56868,-3.83276 -12.76339,-5.93883 -3.95492,-2.00182 -7.87409,-4.07993 -11.70646,-6.30927 -3.33697,-1.88804 -6.59691,-3.91237 -9.83142,-5.96954 -3.56455,-2.28879 -7.05247,-4.69035 -10.50129,-7.14943 -3.72704,-2.72412 -7.40343,-5.5177 -10.9752,-8.44362 -2.70883,-2.21687 -5.37597,-4.48948 -7.98372,-6.82462 -3.49344,-3.11948 -6.88368,-6.35252 -10.19027,-9.66861 -2.95867,-2.99947 -5.84195,-6.06975 -8.6508,-9.20994 -3.10939,-3.50998 -6.12746,-7.10115 -9.02653,-10.78742 -2.18917,-2.77349 -4.30897,-5.60487 -6.36991,-8.47478 -2.74088,-3.82984 -5.36677,-7.74102 -7.88097,-11.72289 -2.21117,-3.54283 -4.34673,-7.13038 -6.37943,-10.77874 -2.19117,-3.96928 -4.30377,-7.98381 -6.25765,-12.07608 -1.61413,-3.29424 -3.11097,-6.64715 -4.55788,-10.0176 -1.62658,-3.81736 -3.14026,-7.67941 -4.57603,-11.57234 -1.56132,-4.33653 -3.02639,-8.70802 -4.33854,-13.12701 -1.0391,-3.45734 -1.98927,-6.94404 -2.86112,-10.44725 -1.1357,-4.52728 -2.11289,-9.09257 -2.98145,-13.67794 -0.76853,-4.18462 -1.43334,-8.38568 -1.99807,-12.60262 -0.597,-4.69137 -1.07303,-9.39799 -1.40177,-14.11623 -0.31132,-4.51575 -0.50146,-9.0412 -0.53582,-13.56809 -0.0669,-3.77115 0.0186,-7.54546 0.15323,-11.31416 0.18592,-4.74713 0.51003,-9.48878 0.98355,-14.21564 0.46969,-4.67404 1.07652,-9.33353 1.81964,-13.97164 0.6706,-4.13699 1.46063,-8.25146 2.33162,-12.35073 1.00485,-4.59144 2.14224,-9.15301 3.40434,-13.68088 1.30111,-4.63397 2.75868,-9.22276 4.32805,-13.77298 1.5665,-4.44871 3.24893,-8.85647 5.06329,-13.21048 1.82185,-4.34779 3.77411,-8.64075 5.84925,-12.87383 2.04039,-4.14353 4.19217,-8.23324 6.47602,-12.24827 1.78252,-3.16543 3.65868,-6.28044 5.59196,-9.35588 2.5292,-4.01103 5.16986,-7.95221 7.94214,-11.79909 1.81653,-2.48371 3.61402,-4.9818 5.54145,-7.38164 109.40039,109.38998 218.80078,218.77995 328.20117,328.16993 z" />
      </g>
    </g>
  </g>
</svg>
