<svg height='300px' width='300px'  fill="#000000" xmlns="http://www.w3.org/2000/svg" xmlns:xlink="http://www.w3.org/1999/xlink" version="1.1" x="0px" y="0px" viewBox="0 0 100 100" enable-background="new 0 0 100 100" xml:space="preserve"><g><path fill="#000000" d="M78.134,35.191c-0.023-0.146-0.048-0.292-0.072-0.438c-0.057-0.333-0.113-0.665-0.178-1.002   c-2.265-12.081-8.677-22.919-9.021-23.507C68.685,9.938,68.355,10,68,10H32c-0.355,0-0.684-0.062-0.863,0.245   c-0.344,0.588-6.76,11.558-9.024,23.645c-0.057,0.299-0.107,0.53-0.158,0.825c-0.031,0.185-0.062,0.339-0.091,0.524   c-1.192,7.421-0.436,13.546,2.29,18.299c3.247,5.66,9.042,9.134,17.631,10.409c1.131,1.104,3.215,3.77,3.215,5.97V76.5   c0,5.293-6.609,7.865-10.263,9.248c-1.992,0.753-2.642,1.035-2.642,1.955c0,0.691,0.048,2.797,17.953,2.797   c18.143,0,18.167-2.105,18.167-2.797c0-0.913-0.964-1.218-2.856-1.952C61.802,84.37,55,81.799,55,76.5v-6.583   c0-2.257,2.383-4.996,3.41-6.062c8.283-1.344,14.166-4.799,17.341-10.333C78.479,48.766,79.329,42.619,78.134,35.191z M67.415,12   c0.061,0,0.131-0.013,0.208,0.129c0.014,0.025,0.03-0.07,0.044-0.043c0.067,0.123,0.14,0.195,0.217,0.342   c0.021,0.037,0.041,0.045,0.062,0.083c0.085,0.161,0.177,0.317,0.272,0.503c0.012,0.022,0.023,0.036,0.035,0.059   c0.346,0.665,0.755,1.472,1.203,2.403c0.008,0.017,0.016,0.03,0.023,0.046c2.436,5.062,6.018,13.67,6.955,22.129   c0.006,0.05,0.012,0.1,0.017,0.151c0.049,0.455,0.089,0.91,0.122,1.363c0.005,0.075,0.011,0.15,0.016,0.227   c0.031,0.479,0.055,0.958,0.066,1.434c0.001,0.023,0.002,0.047,0.003,0.069c0.013,0.513,0.013,1.022-0.001,1.529   c0,0.04-0.004,0.079-0.004,0.118c-0.014,0.455-0.037,0.908-0.07,1.357c-0.005,0.059-0.01,0.117-0.015,0.176   c-0.036,0.447-0.085,0.892-0.145,1.332c-0.015,0.103-0.03,0.203-0.046,0.305c-0.035,0.232-0.078,0.461-0.119,0.691   C74.821,53.941,69.067,58.5,50,58.5c-15.227,0-25.031-2.319-26.474-13.566c-0.028-0.243-0.058-0.486-0.079-0.73   c-0.011-0.11-0.021,0.03-0.029-0.081C22.426,30.861,30.919,15,32.584,12H67.415z M50,62.5c-8.528,0-15.051-1.645-19.506-4.89   C35.023,59.608,41.399,60.5,50,60.5c8.597,0,14.97-0.89,19.498-2.884C65.043,60.857,58.522,62.5,50,62.5z M53,69.917V76.5   c0,6.662,7.914,9.666,11.637,11.111C62.094,88.066,56.993,88.5,50,88.5c-6.855,0-11.908-0.427-14.426-0.876   c0.005-0.002-0.158-0.004-0.153-0.006C39.233,86.176,47,83.175,47,76.5v-6.583c0-2.069-1.075-4.152-2.232-5.627   c1.604,0.136,3.375,0.21,5.136,0.21c2.003,0,3.749-0.099,5.548-0.274C54.362,65.701,53,67.819,53,69.917z"></path></g></svg>